<svg enable-background="new 0 0 321.1 77.3" viewBox="0 0 321.1 77.3" xmlns="http://www.w3.org/2000/svg"><g clip-rule="evenodd" fill-rule="evenodd"><path d="m178.7 14c-.6-.1-1.2-.2-1.9-.2-1.6 0-3 .3-4.1.7l-2.3-3.6c.6-.4.9-.8 1-.8s2.7-2.7 7.1-2.7c.9 0 1.7.1 2.5.3zm-16.1-14h-.1-.1-.1-.1c-.1 0-.2.1-.3.1s-.1 0-.2.1c-.1 0-.1.1-.2.2s-.1.1-.2.2l-5.1 8c-.1-.1-.2-.2-.2-.2-.2-.2-3.9-3.6-9.1-3.3-1.4.1-2.6.3-3.6.6l-1.5-4.1c-.2-.6-.9-1-1.6-.7-.6.2-1 .9-.7 1.6l1.5 4.1c-1.8.9-2.8 1.8-2.8 1.9-.5.5-.5 1.2 0 1.7s1.2.5 1.7 0c0-.1.7-.7 1.9-1.3l2.2 6c-2.2.9-3.4 2.1-3.5 2.1-.5.5-.5 1.2 0 1.7s1.2.5 1.7 0c .1-.1.9-.9 2.6-1.6l3.6 9.8c.2.5.6.8 1.1.8h25.9c.5 0 1-.3 1.2-.8l3.4-9.9c1.9.7 3 1.7 3.1 1.7.5.5 1.3.4 1.7-.1.5-.5.4-1.3-.1-1.7-.1-.1-1.6-1.4-3.9-2.3l2.1-6.1c1.6.7 2.5 1.6 2.5 1.6.5.5 1.3.4 1.7-.1.5-.5.4-1.3-.1-1.7-.1-.1-1.3-1.2-3.4-2.1l1.3-3.9c.2-.6-.1-1.3-.8-1.6-.6-.2-1.3.1-1.6.8l-1.3 3.9c-1-.3-2.1-.4-3.3-.4-5.5 0-8.7 3.3-8.8 3.5 0 0-.2.2-.5.5l-5.5-8.4c0-.1-.1-.1-.2-.2s-.1-.1-.2-.2c-.1 0-.1 0-.2-.1.4 0 .3-.1.1-.1zm13.9 20.5-2.4-3.7c.8-.2 1.7-.4 2.8-.4.4 0 .7 0 1.1.1zm-25.8 4.8-.7-1.9 3.6-5.8c1 .6 1.6 1.1 1.6 1.1.1.1 3.5 3.2 7.6 3.2 4.5 0 7.6-3.1 7.7-3.2s.5-.5 1.3-1l3.7 5.6-.7 1.9h-24.1zm-2-9c .9-.1 1.8.1 2.6.3l-2.4 3.9-1.5-4c .4-.1.9-.2 1.3-.2zm-4.4-8.3c.8-.2 1.8-.4 2.9-.5 4.1-.2 7.2 2.7 7.3 2.7s.2.2.6.5l-2.4 3.8c-1.2-.4-2.5-.7-4-.6-.7 0-1.4.1-2.1.3zm18.2-4.5 4.4 6.8c-1.1.5-2.5 1-4.1 1-1.7 0-3.2-.6-4.4-1.3zm6.3 13.5c.1-.1.6-.7 1.7-1.3l-2.2-3.4c-1.4.7-3.3 1.4-5.4 1.4-2.2 0-4.2-.8-5.7-1.7l-2.2 3.5c1.2.7 1.9 1.3 2 1.4.1 0 2.8 2.6 5.9 2.6 3.4 0 5.8-2.4 5.9-2.5z"/><path d="m1.7 44.1c.9 0 1.7.8 1.7 1.7v29.7c0 .9-.8 1.7-1.7 1.7s-1.7-.8-1.7-1.7v-29.7c0-.9.8-1.7 1.7-1.7z"/><path d="m44.7 44.1c.9.3 1.4 1.2 1.1 2.1l-9.7 29.8c-.3.9-1.2 1.4-2.1 1.1-.9-.3-1.4-1.2-1.1-2.1l9.7-29.8c.3-.8 1.2-1.3 2.1-1.1z"/><path d="m43.8 44.1c-.9.3-1.4 1.2-1.1 2.1l9.7 29.8c.3.9 1.2 1.4 2.1 1.1.9-.3 1.4-1.2 1.1-2.1l-9.7-29.8c-.3-.8-1.2-1.3-2.1-1.1z"/><path d="m16.7 74.3h-15.3c-.8 0-1.4.6-1.4 1.4 0 .8.6 1.4 1.4 1.4h15.3c.8 0 1.4-.6 1.4-1.4.1-.8-.6-1.4-1.4-1.4z"/><path d="m162.7 77.2c.9 0 1.7-.8 1.7-1.7v-29.7c0-.9-.8-1.7-1.7-1.7s-1.7.8-1.7 1.7v29.7c.1.9.8 1.7 1.7 1.7z"/><path d="m172.4 47h-19.3c-.8 0-1.4-.6-1.4-1.4 0-.8.6-1.4 1.4-1.4h19.3c.8 0 1.4.6 1.4 1.4 0 .8-.6 1.4-1.4 1.4z"/><path d="m50.4 65.5h-13c-.8 0-1.4.6-1.4 1.4 0 .8.6 1.4 1.4 1.4h13c .8 0 1.4-.6 1.4-1.4.1-.7-.6-1.4-1.4-1.4z"/><path d="m85.1 77.2c.9-.3 1.3-1.3 1-2.2l-10.9-30c-.3-.9-1.3-1.3-2.2-1s-1.3 1.3-1 2.2l10.9 30c .4.9 1.3 1.3 2.2 1z"/><path d="m84 77.2c-.9-.3-1.3-1.3-1-2.2l10.9-30c .3-.9 1.3-1.3 2.2-1s1.3 1.3 1 2.2l-10.9 30c-.4.9-1.4 1.3-2.2 1z"/><path d="m125.1 44.1c.9.3 1.4 1.2 1.1 2.1l-9.7 29.8c-.3.9-1.2 1.4-2.1 1.1-.9-.3-1.4-1.2-1.1-2.1l9.7-29.8c.2-.8 1.2-1.3 2.1-1.1z"/><path d="m124.1 44.1c-.9.3-1.4 1.2-1.1 2.1l9.7 29.8c.3.9 1.2 1.4 2.1 1.1.9-.3 1.4-1.2 1.1-2.1l-9.7-29.8c-.2-.8-1.2-1.3-2.1-1.1z"/><path d="m130.8 65.5h-13c-.8 0-1.4.6-1.4 1.4 0 .8.6 1.4 1.4 1.4h13c .8 0 1.4-.6 1.4-1.4.1-.7-.6-1.4-1.4-1.4z"/><path d="m310.2 44.1c.9.3 1.4 1.2 1.1 2.1l-9.7 29.8c-.3.9-1.2 1.4-2.1 1.1-.9-.3-1.4-1.2-1.1-2.1l9.7-29.8c.2-.8 1.2-1.3 2.1-1.1z"/><path d="m309.2 44.1c-.9.3-1.4 1.2-1.1 2.1l9.7 29.8c.3.9 1.2 1.4 2.1 1.1.9-.3 1.4-1.2 1.1-2.1l-9.7-29.8c-.2-.8-1.2-1.3-2.1-1.1z"/><path d="m315.9 65.5h-13c-.8 0-1.4.6-1.4 1.4 0 .8.6 1.4 1.4 1.4h13c .8 0 1.4-.6 1.4-1.4.1-.7-.6-1.4-1.4-1.4z"/><path d="m274.1 77.2c.9 0 1.7-.8 1.7-1.7v-29.7c0-.9-.8-1.7-1.7-1.7s-1.7.8-1.7 1.7v29.7c0 .9.7 1.7 1.7 1.7z"/><path d="m232.8 77.2c.9 0 1.7-.8 1.7-1.7v-29.7c0-.9-.8-1.7-1.7-1.7s-1.7.8-1.7 1.7v29.7c0 .9.7 1.7 1.7 1.7z"/><path d="m248.9 75.1-5.3-9.1c-.4-.7-1.3-.9-2-.5-.7.4-.9 1.3-.5 2l5.3 9.1c.4.7 1.3.9 2 .5.6-.4.9-1.3.5-2z"/><path d="m232.9 44.1h10.9c1.8 0 3.4.7 4.5 1.9 1.2 1.2 1.9 2.8 1.9 4.5v10.6c0 1.8-.7 3.4-1.9 4.5-1.2 1.2-2.8 1.9-4.5 1.9h-10.9v-2.9h10.9c1 0 1.9-.4 2.5-1s1-1.5 1-2.5v-10.6c0-1-.4-1.9-1-2.5s-1.5-1-2.5-1h-10.9z"/><path d="m208 58.9h-13c-.8 0-1.4.6-1.4 1.4 0 .8.6 1.4 1.4 1.4h13c .8 0 1.4-.6 1.4-1.4 0-.7-.7-1.4-1.4-1.4z"/><path d="m209.7 44.1h-15.1c-.8 0-1.4.6-1.4 1.4 0 .8.6 1.4 1.4 1.4h15.1c.8 0 1.4-.6 1.4-1.4 0-.7-.6-1.4-1.4-1.4z"/><path d="m209.7 74.3h-15.1c-.8 0-1.4.6-1.4 1.4 0 .8.6 1.4 1.4 1.4h15.1c.8 0 1.4-.6 1.4-1.4 0-.8-.6-1.4-1.4-1.4z"/><path d="m194.7 77.1c.9 0 1.7-.8 1.7-1.7v-29.6c0-.9-.8-1.7-1.7-1.7-.9 0-1.7.8-1.7 1.7v29.7c0 .9.7 1.6 1.7 1.6z"/></g></svg>