<svg enable-background="new 0 0 404 11.7" viewBox="0 0 404 11.7" xmlns="http://www.w3.org/2000/svg"><g fill="#fff"><path d="m7299.5-286.2c.7 8 1.4 16 2.1 24 .3 0 .6.1.9.1-.9-8-1.9-16.1-3-24.1z"/><path d="m404 .1c-8.8.5-13.8 2.8-18.2 4.8-4.8 2.2-9.3 4.3-18.3 4.3-9 0-13.5-2.1-18.3-4.3-5-2.3-10.6-4.9-21.4-4.9s-16.4 2.6-21.3 4.9c-4.2 1.9-8.1 3.8-15.1 4.2-7-.4-10.9-2.3-15.1-4.2-4.9-2.3-10.5-4.9-21.3-4.9s-16.4 2.6-21.3 4.9c-4.8 2.2-9.2 4.3-18.3 4.3-9 0-13.5-2.1-18.3-4.3-4.9-2.3-10.5-4.9-21.3-4.9s-16.4 2.6-21.3 4.9c-4.8 2.2-9.3 4.3-18.3 4.3s-13.5-2.1-18.3-4.3c-5-2.3-10.6-4.9-21.3-4.9-10.8 0-16.4 2.6-21.4 4.9-4.7 2.2-9.2 4.3-18.3 4.3-.1 0-.2 0-.2 0-.1 0-.1 0-.2 0-9 0-13.5-2.1-18.3-4.3-4.9-2.3-10.5-4.9-21.3-4.9-7.8 0-12.8 1.4-16.9 3v8.7h56.7.2 226.1 11.6 72.8 36.5v-11.6z"/><path d="m683 11.7h201.4.2 98.4v-7.2c-.3.1-.6.3-.8.4-4.8 2.2-9.3 4.3-18.3 4.3s-13.5-2.1-18.3-4.3c-5-2.3-10.6-4.9-21.4-4.9s-16.4 2.6-21.3 4.9c-4.8 2.2-9.3 4.3-18.3 4.3-.1 0-.2 0-.2 0-.1 0-.1 0-.2 0-9 0-13.5-2.1-18.3-4.3-5-2.3-10.6-4.9-21.3-4.9-10.8 0-16.4 2.6-21.3 4.9-4.8 2.2-9.2 4.3-18.3 4.3-9 0-13.5-2.1-18.3-4.3-5-2.3-10.6-4.9-21.3-4.9-10.8 0-16.4 2.6-21.4 4.9-4.8 2.2-9.3 4.3-18.3 4.3s-13.5-2.1-18.3-4.3c-4.9-2.3-10.5-4.9-21.3-4.9-1.1 0-2.1 0-3.1.1z"/></g></svg>