<svg enable-background="new 0 0 1249.5 11.7" viewBox="0 0 1249.5 11.7" xmlns="http://www.w3.org/2000/svg"><path d="m7356.5-292.2c.7 8 1.4 16 2.1 24 .3 0 .6.1.9.1-.9-8-1.9-16.1-3-24.1z" fill="#fff"/><path d="m1249.5 0h-67.5-70.7c-.1 0-.1 0-.2 0h-226.1-11.6-72.8-238c-.1 0-.1 0-.2 0h-237.7-237.4c-.1 0-.1 0-.2 0h-87.1v3.1c2.2-.4 4.7-.7 7.8-.7 9 0 13.5 2.1 18.3 4.3 4.9 2.3 10.6 4.9 21.3 4.9 10.8 0 16.4-2.6 21.3-4.9 4.8-2.2 9.3-4.3 18.3-4.3h.2.2c9 0 13.5 2.1 18.3 4.3 4.9 2.3 10.6 4.9 21.3 4.9 10.8 0 16.4-2.6 21.3-4.9 4.8-2.2 9.2-4.3 18.3-4.3 9 0 13.5 2.1 18.3 4.3 4.9 2.3 10.6 4.9 21.3 4.9 10.8 0 16.4-2.6 21.3-4.9 4.8-2.2 9.3-4.3 18.3-4.3s13.5 2.1 18.3 4.3c4.9 2.3 10.6 4.9 21.3 4.9 10.8 0 16.4-2.6 21.3-4.9 4.7-2.2 9.2-4.3 18.1-4.3s13.3 2.1 18.1 4.3c4.9 2.3 10.6 4.9 21.3 4.9 10.8 0 16.4-2.6 21.3-4.9 4.8-2.2 9.2-4.3 18.3-4.3 9 0 13.5 2.1 18.3 4.3 4.9 2.3 10.6 4.9 21.3 4.9 10.8 0 16.4-2.6 21.3-4.9 4.8-2.2 9.3-4.3 18.3-4.3s13.5 2.1 18.3 4.3c4.9 2.3 10.6 4.9 21.3 4.9 10.8 0 16.4-2.6 21.3-4.9 4.8-2.2 9.3-4.3 18.3-4.3h.2.2c9 0 13.5 2.1 18.3 4.3 4.9 2.3 10.6 4.9 21.3 4.9 10.8 0 16.4-2.6 21.3-4.9 4.8-2.2 9.2-4.3 18.3-4.3 9 0 13.5 2.1 18.3 4.3 4.9 2.3 10.6 4.9 21.3 4.9 10.8 0 16.4-2.6 21.3-4.9 4.8-2.2 9.3-4.3 18.3-4.3s13.5 2.1 18.3 4.3c4.9 2.3 10.6 4.9 21.3 4.9s16.4-2.6 21.3-4.9c4.8-2.2 9.3-4.3 18.3-4.3 9 0 13.5 2.1 18.3 4.3 4.9 2.3 10.6 4.9 21.3 4.9 10.8 0 16.4-2.6 21.3-4.9 4.2-1.9 8.1-3.8 15.1-4.2 7 .4 10.9 2.3 15.1 4.2 4.9 2.3 10.6 4.9 21.3 4.9 10.8 0 16.4-2.6 21.3-4.9 4.8-2.2 9.2-4.3 18.3-4.3 9 0 13.5 2.1 18.3 4.3 4.9 2.3 10.6 4.9 21.3 4.9s16.4-2.6 21.3-4.9c4.8-2.2 9.3-4.3 18.3-4.3s13.5 2.1 18.3 4.3c4.9 2.3 10.6 4.9 21.3 4.9 10.8 0 16.4-2.6 21.3-4.9 4.8-2.2 9.3-4.3 18.3-4.3h.2.2c9 0 13.5 2.1 18.3 4.3 4.9 2.3 10.6 4.9 21.3 4.9 10.8 0 16.4-2.6 21.3-4.9 4.7-2.2 9.1-4.2 17.8-4.3 8.7.1 13.2 2.1 17.8 4.3 4.9 2.3 10.6 4.9 21.3 4.9 9.9 0 15.4-2.2 20.1-4.3v-7.3z" fill="#fff"/></svg>