<?xml version="1.0" encoding="utf-8"?>
<!-- Generator: Adobe Illustrator 21.1.0, SVG Export Plug-In . SVG Version: 6.00 Build 0)  -->
<svg version="1.1" id="Capa_1" xmlns="http://www.w3.org/2000/svg" xmlns:xlink="http://www.w3.org/1999/xlink" x="0px" y="0px"
	 viewBox="0 0 213 213" style="enable-background:new 0 0 213 213;" xml:space="preserve">
<style type="text/css">
	.st0{fill:#FF5063;}
</style>
<path class="st0" d="M121.9,106.5l80.8-80.8c2.1-2.1,3.2-4.8,3.2-7.7s-1.1-5.6-3.2-7.7c-2.1-2.1-4.8-3.2-7.7-3.2
	c-2.9,0-5.6,1.1-7.7,3.2l-80.9,80.9l-80.8-81C23.6,8.1,20.9,7,18,7c-2.9,0-5.6,1.1-7.7,3.2S7,14.9,7,17.8s1.1,5.6,3.2,7.7l80.9,80.9
	l-80.9,80.9c-4.2,4.2-4.2,11.2,0,15.4c4.2,4.2,11.2,4.2,15.4,0l80.8-80.8l80.9,80.8c2.1,2.1,4.8,3.2,7.7,3.2c2.9,0,5.6-1.1,7.7-3.2
	c2.1-2.1,3.2-4.8,3.2-7.7c0-2.9-1.1-5.6-3.2-7.7L121.9,106.5z"/>
</svg>
