<?xml version="1.0" encoding="utf-8"?>
<!-- Generator: Adobe Illustrator 21.1.0, SVG Export Plug-In . SVG Version: 6.00 Build 0)  -->
<svg version="1.1" id="Layer_1" xmlns="http://www.w3.org/2000/svg" xmlns:xlink="http://www.w3.org/1999/xlink" x="0px" y="0px"
	 viewBox="0 0 489.5 489.5" style="enable-background:new 0 0 489.5 489.5;" xml:space="preserve">
<style type="text/css">
	.st0{fill:#1ACE91;}
</style>
<path id="XMLID_506_" class="st0" d="M427.8,87.1L343.1,24c-5.2-3.9-12.5-2.8-16.4,2.4L289.8,76l103.5,77.1l36.9-49.6
	C434.1,98.4,433,91,427.8,87.1z"/>
<path d="M95.4,321.8c-0.1,0.1-0.1,0.2-0.1,0.2c-0.2,0.3-0.5,0.8-0.7,1.1c-0.1,0.1-0.1,0.2-0.2,0.4c-0.2,0.5-0.4,1-0.5,1.5
	c0,0.1,0,0.2-0.1,0.4c-0.1,0.4-0.1,0.8-0.1,1.2c0,0.1,0,0.4,0,0.5s0,0.2,0,0.4L95,433.9c0,2.8,1.4,5.5,3.6,7.2
	c2.2,1.7,5.2,2.2,7.9,1.4l102.4-29.3c0.1,0,0.2-0.1,0.3-0.1c0.1,0,0.3-0.1,0.5-0.1c0.3-0.1,0.7-0.3,1.1-0.4c0.1,0,0.2-0.1,0.4-0.2
	c0.5-0.3,0.8-0.6,1.3-0.9c0.1-0.1,0.1-0.2,0.3-0.3c0.3-0.3,0.6-0.7,0.9-1c0.1-0.1,0.1-0.2,0.1-0.2l162.5-218.2c3-4,2.1-9.7-1.9-12.7
	c-4-3-9.7-2.1-12.7,1.9l-157,210.9L167.4,364l156.7-210.5c3-4,2.1-9.7-1.9-12.7c-4-3-9.7-2.1-12.7,1.9L152.8,353.2l-37.2-27.7
	L272.4,115c3-4,2.1-9.7-1.9-12.7s-9.7-2.1-12.7,1.9L95.6,321.9L95.4,321.8z M186.2,400.7l-73.3,20.9l-0.9-76.3L186.2,400.7
	L186.2,400.7z"/>
<path d="M423.7,72.8l-65.8-49c-14.4-10.8-34.9-7.8-45.8,6.7l-29.8,40c-3,4-2.1,9.7,1.9,12.7l103.5,77.1c4,3,9.7,2.1,12.7-1.9
	l29.9-40.1C441.1,104,438.1,83.6,423.7,72.8z M391.4,140.5l-89-66.3l24.4-32.8c4.8-6.4,13.9-7.7,20.3-3l65.8,49
	c6.4,4.8,7.7,13.9,3,20.3L391.4,140.5z"/>
</svg>
