<svg xmlns="http://www.w3.org/2000/svg" viewBox="0 0 484.1 484.1" enable-background="new 0 0 484.1 484.1"><style type="text/css">.st0{fill:#01B3FD;}</style><path d="M315.8 197.3h-68.5c-5.8 0-10.5 4.7-10.5 10.5s4.7 10.5 10.5 10.5h68.5c5.8 0 10.5-4.7 10.5-10.5s-4.7-10.5-10.5-10.5zm-78.6-126.3c-.9 1.6-1.8 3.3-2.7 5 .8-1.1 1.5-2.2 2.3-3.2 0-.6.1-1.2.4-1.8zm20.5-27.3c-.9 1.5-1.7 3.1-2.3 4.7l-.1.7c.7-.7 1.6-1.2 2.5-1.4 0-1.3 0-2.7-.1-4z"/><path class="st0" d="M337.8 103.9c15.1-7 24.8-22.2 24.8-38.8 0-23.6-19.2-42.8-42.8-42.8s-42.8 19.2-42.8 42.8c0 5 4 9 9 9s9-4 9-9c0-13.7 11.1-24.8 24.8-24.8s24.8 11.1 24.8 24.8c0 13.7-11.1 24.8-24.8 24.8-5 0-9 4-9 9v2.7c5.2.2 10.5.8 15.6 1.4 3.8.4 7.7.7 11.4.9z"/><path d="M318.2 88.4h-33.2c-5 0-9 4-9 9 0 1.5-.1 3.1-.2 4.9l-.1 1.4h-.8c-.3 2.4-1.1 4.5-1.9 6.5-.4.9-.8 1.9-1.1 2.9-.4 1.1-.7 2.2-1 3.2-.6 1.8-1.1 3.6-1.8 5.4h1.8l-1.1 2.2c-10.1 20.1-30.3 32.6-52.8 32.6-22.4 0-42.7-12.5-52.8-32.6l-1.1-2.2h.7c-1.9-3.8-2.8-8-3.7-12.1-.4-2-.9-4-1.4-5.9h-.5l-.1-1.4c-.1-1.8-.2-3.4-.2-4.9 0-5-4-9-9-9h-118c-16.2 0-29.4 13.2-29.4 29.4v80.7c0 16.2 13.2 29.4 29.4 29.4h33.7v183.1c0 15.6 12.7 28.3 28.3 28.3h31.2v13.8c0 15.6 12.7 28.3 28.3 28.3h247.2c15.6 0 28.3-12.7 28.3-28.3v-183h25.2c16.2 0 29.4-13.2 29.4-29.4v-80.7c0-16.2-13.2-29.4-29.4-29.4h-19v-12.7c0-16.2-13.2-29.4-29.4-29.4h-46.7m76.2 110.1v-50.1h19c6.3 0 11.4 5.1 11.4 11.4v80.7c0 3.1-1.2 5.9-3.4 8.1s-5 3.4-8.1 3.4h-34.1c-5 0-9 4-9 9v192.1c0 5.7-4.6 10.3-10.3 10.3h-247.2c-5.7 0-10.3-4.6-10.3-10.3v-13.8h198.8c15.6 0 28.3-12.7 28.3-28.3v-183.1h35.4c16.3 0 29.5-13.2 29.5-29.4zm-29.5-92.2c6.3 0 11.4 5.1 11.4 11.4v80.7c0 6.3-5.1 11.4-11.4 11.4h-44.4c-5 0-9 4-9 9v192.1c0 5.7-4.6 10.3-10.3 10.3h-248c-5.7 0-10.3-4.6-10.3-10.3v-192c0-5-4-9-9-9h-42.8c-6.3 0-11.4-5.1-11.4-11.4v-80.7c0-6.3 5.1-11.4 11.4-11.4h109.5l.2 1.3c5.1 38.1 37.9 66.7 76.4 66.7 38.4 0 71.3-28.7 76.4-66.7l.2-1.3h111.1z"/><path class="st0" d="M275.7 103.7h-51.6v-16.3l1.1-.3c19.2-4.7 32.7-21.8 32.7-41.6 0-23.6-19.2-42.8-42.8-42.8-23.6 0-42.8 19.2-42.8 42.8 0 5 4 9 9 9s9-4 9-9c0-13.7 11.1-24.8 24.8-24.8 13.7 0 24.8 11.1 24.8 24.8 0 13.7-11.1 24.8-24.8 24.8-5 0-9 4-9 9v24.4h-47.9c.1.7.2 1.4.3 2.2.9 5.5 1.7 10.8 4.6 15.8h107.7c1.3-3.3 2.5-6.7 3.4-10.2.7-2.6 1-5.2 1.5-7.8z"/></svg>