<svg xmlns="http://www.w3.org/2000/svg" viewBox="0 0 512 512" enable-background="new 0 0 512 512"><style type="text/css">.st0{fill:#01B3FD;}</style><path d="M458.6 54.5h-12.9v-21.4c0-5.6-4.6-10.2-10.2-10.2s-10.2 4.6-10.2 10.2v21.4h-338.6v-21.4c0-5.6-4.6-10.2-10.2-10.2s-10.2 4.6-10.2 10.2v21.4h-12.9c-29.4 0-53.4 24-53.4 53.4v234.9c0 29.4 24 53.4 53.4 53.4h100c5.1 52.1 49.2 92.9 102.6 92.9s97.4-40.8 102.6-92.9h100c29.4 0 53.4-24 53.4-53.4v-234.9c0-29.4-24-53.4-53.4-53.4zm-120.6 341.6c-4.6 37.6-34.4 67.4-72 72-.9-4.8-5-8.4-10-8.4s-9.2 3.6-10 8.4c-37.6-4.6-67.4-34.4-72-72 4.8-.9 8.4-5 8.4-10s-3.6-9.2-8.4-10c4.6-37.6 34.4-67.4 72-72 .9 4.8 5 8.4 10 8.4s9.2-3.6 10-8.4c37.6 4.6 67.4 34.4 72 72-4.8.9-8.4 5-8.4 10s3.7 9.1 8.4 10zm153.6-53.3c0 18.2-14.8 33-33 33h-100.1c-5.2-52-49.2-92.8-102.5-92.8s-97.4 40.8-102.5 92.8h-100.1c-18.2 0-33-14.8-33-33v-208.7h471.2v208.7zm0-229.1h-471.2v-5.8c0-18.2 14.8-33 33-33h12.9v13.3c0 5.6 4.6 10.2 10.2 10.2s10.2-4.6 10.2-10.2v-13.3h338.6v13.3c0 5.6 4.6 10.2 10.2 10.2s10.2-4.6 10.2-10.2v-13.3h12.9c18.2 0 33 14.8 33 33v5.8zm-428.4 46.9h-7.1c-5.6 0-10.2 4.6-10.2 10.2s4.6 10.2 10.2 10.2h7.1c5.6 0 10.2-4.6 10.2-10.2s-4.5-10.2-10.2-10.2zm56.1 0h-7.1c-5.6 0-10.2 4.6-10.2 10.2s4.6 10.2 10.2 10.2h7.1c5.6 0 10.2-4.6 10.2-10.2s-4.5-10.2-10.2-10.2z"/><path class="st0" d="M175.4 160.6h-7.1c-5.6 0-10.2 4.6-10.2 10.2s4.6 10.2 10.2 10.2h7.1c5.6 0 10.2-4.6 10.2-10.2s-4.5-10.2-10.2-10.2z"/><path d="M231.5 160.6h-7.1c-5.6 0-10.2 4.6-10.2 10.2s4.6 10.2 10.2 10.2h7.1c5.6 0 10.2-4.6 10.2-10.2s-4.5-10.2-10.2-10.2zm56.1 0h-7.1c-5.6 0-10.2 4.6-10.2 10.2s4.6 10.2 10.2 10.2h7.1c5.6 0 10.2-4.6 10.2-10.2s-4.6-10.2-10.2-10.2zm56.1 0h-7.1c-5.6 0-10.2 4.6-10.2 10.2s4.6 10.2 10.2 10.2h7.1c5.6 0 10.2-4.6 10.2-10.2s-4.6-10.2-10.2-10.2zm56.1 0h-7.1c-5.6 0-10.2 4.6-10.2 10.2s4.6 10.2 10.2 10.2h7.1c5.6 0 10.2-4.6 10.2-10.2s-4.6-10.2-10.2-10.2zm56.1 0h-7.1c-5.6 0-10.2 4.6-10.2 10.2s4.6 10.2 10.2 10.2h7.1c5.6 0 10.2-4.6 10.2-10.2s-4.6-10.2-10.2-10.2zm-392.7 54.4h-7.1c-5.6 0-10.2 4.6-10.2 10.2s4.6 10.2 10.2 10.2h7.1c5.6 0 10.2-4.6 10.2-10.2s-4.5-10.2-10.2-10.2zm56.1 0h-7.1c-5.6 0-10.2 4.6-10.2 10.2s4.6 10.2 10.2 10.2h7.1c5.6 0 10.2-4.6 10.2-10.2s-4.5-10.2-10.2-10.2zm56.1 0h-7.1c-5.6 0-10.2 4.6-10.2 10.2s4.6 10.2 10.2 10.2h7.1c5.6 0 10.2-4.6 10.2-10.2s-4.5-10.2-10.2-10.2zm56.1 0h-7.1c-5.6 0-10.2 4.6-10.2 10.2s4.6 10.2 10.2 10.2h7.1c5.6 0 10.2-4.6 10.2-10.2s-4.5-10.2-10.2-10.2zm56.1 0h-7.1c-5.6 0-10.2 4.6-10.2 10.2s4.6 10.2 10.2 10.2h7.1c5.6 0 10.2-4.6 10.2-10.2s-4.6-10.2-10.2-10.2z"/><path class="st0" d="M343.7 215h-7.1c-5.6 0-10.2 4.6-10.2 10.2s4.6 10.2 10.2 10.2h7.1c5.6 0 10.2-4.6 10.2-10.2s-4.6-10.2-10.2-10.2z"/><path d="M399.8 215h-7.1c-5.6 0-10.2 4.6-10.2 10.2s4.6 10.2 10.2 10.2h7.1c5.6 0 10.2-4.6 10.2-10.2s-4.6-10.2-10.2-10.2zm56.1 0h-7.1c-5.6 0-10.2 4.6-10.2 10.2s4.6 10.2 10.2 10.2h7.1c5.6 0 10.2-4.6 10.2-10.2s-4.6-10.2-10.2-10.2zm-392.7 54.4h-7.1c-5.6 0-10.2 4.6-10.2 10.2s4.6 10.2 10.2 10.2h7.1c5.6 0 10.2-4.6 10.2-10.2s-4.5-10.2-10.2-10.2z"/><path class="st0" d="M119.3 269.4h-7.1c-5.6 0-10.2 4.6-10.2 10.2s4.6 10.2 10.2 10.2h7.1c5.6 0 10.2-4.6 10.2-10.2s-4.5-10.2-10.2-10.2z"/><path d="M175.4 269.4h-7.1c-5.6 0-10.2 4.6-10.2 10.2s4.6 10.2 10.2 10.2h7.1c5.6 0 10.2-4.6 10.2-10.2s-4.5-10.2-10.2-10.2zm168.3 0h-7.1c-5.6 0-10.2 4.6-10.2 10.2s4.6 10.2 10.2 10.2h7.1c5.6 0 10.2-4.6 10.2-10.2s-4.6-10.2-10.2-10.2zm56.1 0h-7.1c-5.6 0-10.2 4.6-10.2 10.2s4.6 10.2 10.2 10.2h7.1c5.6 0 10.2-4.6 10.2-10.2s-4.6-10.2-10.2-10.2zm56.1 0h-7.1c-5.6 0-10.2 4.6-10.2 10.2s4.6 10.2 10.2 10.2h7.1c5.6 0 10.2-4.6 10.2-10.2s-4.6-10.2-10.2-10.2zm-392.7 54.4h-7.1c-5.6 0-10.2 4.6-10.2 10.2s4.6 10.2 10.2 10.2h7.1c5.6 0 10.2-4.6 10.2-10.2s-4.5-10.2-10.2-10.2zm56.1 0h-7.1c-5.6 0-10.2 4.6-10.2 10.2s4.6 10.2 10.2 10.2h7.1c5.6 0 10.2-4.6 10.2-10.2s-4.5-10.2-10.2-10.2z"/><path class="st0" d="M399.8 323.8h-7.1c-5.6 0-10.2 4.6-10.2 10.2s4.6 10.2 10.2 10.2h7.1c5.6 0 10.2-4.6 10.2-10.2s-4.6-10.2-10.2-10.2z"/><path d="M455.9 323.8h-7.1c-5.6 0-10.2 4.6-10.2 10.2s4.6 10.2 10.2 10.2h7.1c5.6 0 10.2-4.6 10.2-10.2s-4.6-10.2-10.2-10.2z"/><path class="st0" d="M256 319.2c-5.6 0-10.2 4.6-10.2 10.2v2.1c0 5.6 4.6 10.2 10.2 10.2s10.2-4.6 10.2-10.2v-2.1c0-5.7-4.6-10.2-10.2-10.2zm33.3 85.7l-23.1-23.5v-18.3c0-5.6-4.6-10.2-10.2-10.2s-10.2 4.6-10.2 10.2v22.5c0 2.8 1.1 5.3 2.9 7.1l26.1 26.5c2 2 4.6 3 7.3 3 2.6 0 5.2-1 7.1-2.9 4-3.9 4.1-10.3.1-14.4z"/></svg>