<svg xmlns="http://www.w3.org/2000/svg" viewBox="0 0 536 421.6" enable-background="new 0 0 536 421.6"><style type="text/css">.st0{fill:#01B3FD;stroke:#01B3FD;stroke-width:2;stroke-miterlimit:10;} .st1{fill:#01B3FD;}</style><path d="M136.5 92.7c0-.1 0-.2.1-.3h-11.2l11.1.3zm366.9 230.2c-9.2-1-18.3-2.7-27.1-5.1-20.6-5.5-62.7-22.7-98.8-38.1l.7-5.8c0-.3 0-1.7-.2-2.1-1.2-6.6-8.6-36.2-14.4-55.5l7.5 2.3c.5.2 1.1.2 1.6.2 2.4 0 4.5-1.6 5.3-3.9.4-1.4.3-2.9-.4-4.2-.7-1.3-1.8-2.2-3.3-2.7l-14.9-4.5c-.4-1.2-.7-2.6-1.1-4.1-5.1-19.3-15.7-59.4-83.5-71v-5.7c-3.7.1-7.3.1-11 .1v40.9h-6.8v-41c-3.6-.1-7.2-.2-10.8-.4h-.2v3.2h-112.4v-3.5h-11v41.7h-6.8v-41.7l-11-.1v6.6c-67.7 11.6-78.4 51.7-83.5 71-.4 1.5-.8 2.9-1.1 4.1l-14.9 4.4c-1.4.4-2.6 1.4-3.3 2.7-.7 1.3-.8 2.8-.4 4.2.7 2.3 2.8 3.9 5.3 3.9.5 0 1.1-.1 1.6-.2l7.5-2.3c-5.8 19.3-13.2 48.8-14.4 55.4-.2.8-.2 2-.2 2.2 3.3 28.2 9 75.6 9 75.7 3.2 18.1 18.2 22.9 25.6 22.9h131.5c.9 3.8 2.8 7.2 5.4 10.2v27c0 6.6 5.4 11.9 11.9 11.9h203.4c60.3 0 108.1-12 125.8-17.1 4.9-1.4 8.9-4.8 11.2-9.3l10-19.9c.4-.8.6-1.7.6-2.6l.2-13.4c0-18.7-14-34.3-32.6-36.4zm-30.1 6.1c9.3 2.5 19 4.3 28.8 5.4.7.1 1.4.2 2.2.3-2.1.7-4.5 1.4-7.2 2.2-11.5 3.2-31.4 7.8-60.3 11-5 .5-9.6 2.5-13.3 5.8l-8.6 7.4-1.3-.3c-15.6-1.2-31.9-2.9-48-4.8l44.2-26.5c19.6.2 32.8-2.5 40.2-8.2 9 3.4 17 6 23.3 7.7zm-162.8 19.6c-6.1-.9-12-1.8-17.7-2.7l37.8-22.7c2.7-1.6 5.8-2.2 8.8-1.6 4.2.8 8.4 1.5 12.4 2.1l-41.3 24.9zm59.5-22.1c6.6.9 13 1.5 19 2.1l-42 25.2c-6.2-.8-12.3-1.6-18.3-2.5l41.3-24.8zm32.8 45l-15.8 13.7c-19.3-.5-36.7-1.7-53.6-2.8-21.9-1.5-44.5-3-70.9-3.1l-16.3-29.4c27.7 4.9 96.2 16.3 156.6 21.6zm-40-71c1.1 1 2.5 1.5 3.9 1.5 1.6 0 3.1-.6 4.3-1.9l6.9-7.5c3.4 1.3 6.8 2.8 10.1 4.2l-3.5 3.8c-2.2 2.3-2 6 .3 8.2 1.1 1 2.5 1.5 3.9 1.5 1.6 0 3.1-.6 4.3-1.9l6.3-6.9c12.2 5.1 24.3 9.9 35.4 14.2-16.4 4.3-49.7 2.5-93.2-5.5-5.8-1.1-11.8 0-16.8 3.1l-49.6 29.7c-18.4-3-31.9-5.4-37.2-6.4-6.9-8.8-16.2-15.7-26.8-19.7l-28.8-10.8 1.7-26.3c.2-3.4 3.1-6.1 6.5-6.1h6.9c.2 0 .4.2.4.4v3.4c0 7.8 5 14.7 12.4 17.2l36.2 12.1c8.8 2.9 18.3.7 24.8-5.9l32.2-32.2c3.8-3.8 9.3-4.8 14.1-2.6 2.2 1 4.5 2 7 3.1l-5.8 6.4c-2.2 2.3-2 6 .3 8.2 1.1 1 2.5 1.5 3.9 1.5 1.6 0 3.1-.6 4.3-1.9l8.5-9.2c3.2 1.4 6.5 2.8 9.9 4.4l-5 5.4c-2.2 2.3-2 6 .3 8.2 1.1 1 2.5 1.5 3.9 1.5 1.6 0 3.1-.6 4.3-1.9l7.7-8.3c3.2 1.4 6.6 2.8 9.9 4.3l-4.2 4.5c-2.2 2.3-2 6 .3 8.2zm-74.6-157.8c47.1 13 54.9 42.2 59.5 59.6.8 2.9 1.4 5.4 2.2 7.6 4.9 13.7 12.9 45.2 16.2 58.9-2.5.6-5.1 1.6-7.6 2.7-15.4-6.7-28.4-12.5-36.2-16-9.2-4.1-19.9-2.2-27 5l-7.1 7.1v-124.9zm-10.9 135.9l-14.3 14.2c-3.4 3.4-8.4 4.6-13 3.1l-6.3-2.1v-98l13.7 9.1c.9.6 1.7.9 3.1.9 1.1 0 2.1-.3 3.1-.9l13.7-9.1v82.8zm-2.5-138.9l2.4.4v23.6h-2.4v-24zm2.4 35v7.9l-16.7 11.2-16.8-11.2v-7.9h33.5zm-33.6-38.3c.9.1 1.6.1 2.4.1v27.1h-2.4v-27.2zm-110 .1c.8 0 1.6 0 2.4-.1v27.2h-2.4v-27.1zm-31.1 3.6c.8-.2 1.6-.3 2.4-.4v24h-2.4v-23.6zm0 34.6h33.5v7.9l-16.7 11.2-16.8-11.2v-7.9zm0 21.1l13.7 9.1c.9.6 2 .9 3.1.9 1.6.1 2.9-.8 3-.9l13.7-9.1v109.5h-33.5v-109.5zm-72.7 14.1c.8-2.2 1.4-4.7 2.2-7.6 4.6-17.4 12.4-46.6 59.5-59.6v162.5c-32.3-.2-38.8-3.9-50.7-18.2-9.8-11.8-20.1-16.4-27.2-18.2 3.2-13.7 11.2-45.2 16.2-58.9zm137.4 151.6h-131c-1.3 0-12.4-.5-14.8-13.7l-8-67.7c5 1.7 12.1 5.5 19 13.8 15.1 18.3 26.1 22.2 61.6 22.2h76.1l-2.9 45.4zm5.2-82.4l-1.6 26.1h-23.8v-169h85.7v153.8l-18.9-6.3c-2.7-.9-4.5-3.4-4.5-6.2v-3.4c0-6.6-5.4-11.9-11.9-11.9h-6.9c-9.6 0-17.5 7.4-18.1 16.9zm6.1 86.9l3-47.7 25.5 9.6c11 4.1 20.3 12.1 26 22.4l16.1 29.1h-58c-3.5 0-6.8-1.4-9.2-4-2.3-2.6-3.6-6-3.4-9.4zm336.6 24.1c-.8 1.6-2.3 2.9-4.1 3.4-13.5 3.9-62.1 16.7-122.6 16.7h-203.4c-.2 0-.4-.2-.4-.4v-18.9h74.4c27.5 0 50.9 1.6 73.6 3.1 22.8 1.5 46.4 3.1 74.3 3.1 49.3 0 91.7-9.5 112.2-15l-4 8zm9.2-21.6c-13.6 4-61.4 16.9-117.4 16.9h-2.6l26.6-23c1.9-1.7 4.4-2.7 7-3 47.3-5.2 71.8-13.9 79.6-17.2 4.2 4.5 6.8 10.5 6.8 17.1v9.2z"/><path class="st0" d="M246.5 143l.1 30.1 27.9.1-.3-35.1v-.1c0-3.3.1-6.7.1-10.1 0-3.5 0-7-.1-10.5 0-60-37.9-108.8-84.5-108.8s-84.5 48.8-84.5 108.8v45.7h27.8v-28.1c-4.2-59 30.9-99.1 56.7-98.9 24.3.2 56.7 29.9 56.7 88.8.1 6.1.1 12.1.1 18.1zm17.8 20.1h-7.8v-45.7c0-50.3-29.9-91.2-66.7-91.2-36.8 0-66.7 40.9-66.7 91.2v45.7h-7.8v-45.7c0-54.5 33.4-98.8 74.5-98.8s74.5 44.3 74.5 98.8v45.7z"/><path class="st1" d="M324.7 269.3l-5.7 6.2c-2.1 2.3-2 5.9.3 8 1.1 1 2.5 1.5 3.8 1.5 1.5 0 3.1-.6 4.2-1.8l8.3-9m10 4.3l-4.9 5.4c-2.1 2.3-2 5.9.3 8 1.1 1 2.5 1.5 3.8 1.5 1.5 0 3.1-.6 4.2-1.8l7.6-8.3m10.2 4.8l-4 4.3c-2.1 2.3-2 5.9.3 8 1.1 1 2.5 1.5 3.8 1.5 1.5 0 3.1-.6 4.2-1.8l6.7-7.2m10 4.1l-3.4 3.8c-2.1 2.3-2 5.9.3 8 1.1 1 2.5 1.5 3.8 1.5 1.5 0 3.1-.6 4.2-1.8l6.2-6.8"/></svg>