<?xml version="1.0" encoding="utf-8"?>
<!-- Generator: Adobe Illustrator 21.1.0, SVG Export Plug-In . SVG Version: 6.00 Build 0)  -->
<svg version="1.1" id="Capa_1" xmlns="http://www.w3.org/2000/svg" xmlns:xlink="http://www.w3.org/1999/xlink" x="0px" y="0px"
	 viewBox="0 0 375.7 375.7" style="enable-background:new 0 0 375.7 375.7;" xml:space="preserve">
<style type="text/css">
	.st0{fill:#01B3FD;stroke:#01B3FD;stroke-width:2;stroke-miterlimit:10;}
</style>
<path d="M360.8,212.6l8.4,2.6c0.5,0.1,1,0.2,1.5,0.2c2.1,0,4.1-1.4,4.8-3.5c0.8-2.6-0.7-5.4-3.3-6.2L357,201
	c-0.4-1.3-0.8-2.8-1.2-4.4c-5.1-19.4-15.7-59.2-83.5-70.7v-10.5c0-60-37.9-108.8-84.5-108.8c-46.6,0-84.5,48.8-84.5,108.8v10.5
	c-67.8,11.5-78.4,51.3-83.5,70.7c-0.4,1.6-0.8,3.1-1.2,4.4l-15.1,4.6c-2.6,0.8-4.1,3.6-3.3,6.2c0.7,2.2,2.6,3.5,4.8,3.5
	c0.5,0,1-0.1,1.5-0.2l8.4-2.6c-5.7,18.6-13.4,49.2-14.7,56.3c-0.2,0.6-0.2,1.8-0.2,2c0,0,9,75.6,9,75.7
	c3.2,17.8,17.8,22.5,25.1,22.5h307.4c7.3,0,21.9-4.7,25.1-22.5c0-0.1,9-75.7,9-75.7c0-0.2,0-1.5-0.2-2
	C374.2,261.8,366.4,231.2,360.8,212.6z M285.6,139c48,13,56,43.1,60.5,60.1c0.8,2.9,1.4,5.4,2.2,7.5c5.1,14,13.4,46.9,16.3,59.4
	c-6.5,1.6-17.3,5.9-27.4,18.2c-11.9,14.4-18.7,18.3-51.6,18.4L285.6,139L285.6,139z M131.1,123.1v-7.6c0-44.8,25.4-81.2,56.7-81.2
	c31.3,0,56.7,36.4,56.7,81.2v7.6C239.9,123.1,135.9,123.1,131.1,123.1z M231.2,132.7v170h-86.7v-170
	C144.7,132.7,230.9,132.7,231.2,132.7z M100,191.9l14.5,9.7c0.9,0.6,1.8,0.8,2.8,0.8c1.5,0,2.8-0.8,2.8-0.8l14.5-9.7v110.9H100
	L100,191.9L100,191.9z M134.5,161.2h-3.4v-28.1c1.1-0.1,2.2-0.1,3.4-0.1V161.2z M275.6,179.8l-17.2,11.5l-17.2-11.5v-8.7h34.5
	L275.6,179.8L275.6,179.8z M241.2,161.2v-28.2c1.1,0,2.2,0.1,3.4,0.1v28.1H241.2z M241.2,191.9l14.5,9.7c0.8,0.6,1.5,0.8,2.8,0.8
	c1,0,1.9-0.3,2.8-0.8l14.5-9.7v110.9h-34.5L241.2,191.9L241.2,191.9z M272.3,136.1c1.1,0.2,2.3,0.4,3.4,0.6v24.5h-3.4V136.1z
	 M113.4,115.4c0-54.5,33.4-98.8,74.5-98.8c41.1,0,74.5,44.3,74.5,98.8v45.7h-7.8v-45.7c0-50.3-29.9-91.2-66.7-91.2
	s-66.7,40.9-66.7,91.2v45.7h-7.8L113.4,115.4L113.4,115.4z M100,136.7c1.1-0.2,2.2-0.4,3.4-0.6v25.1H100V136.7z M134.5,171.2v8.7
	l-17.2,11.5L100,179.8v-8.7H134.5z M27.3,206.7c0.8-2.1,1.4-4.6,2.2-7.5C34,182.2,42,152.1,90,139v163.7c-32.8-0.1-39.7-4-51.6-18.4
	c-10.1-12.3-20.9-16.6-27.4-18.2C14,253.6,22.3,220.7,27.3,206.7z M356.8,344.9c-2.5,13.6-14,14.1-15.3,14.1H34.2
	c-1.3,0-12.8-0.6-15.3-14.1l-8.1-68.5c5,1.6,12.6,5.4,19.9,14.3c15,18.1,25.9,22.1,61.2,22.1h191.8c35.4,0,46.2-3.9,61.2-22.1
	c7.4-9,15-12.7,19.9-14.3L356.8,344.9z"/>
<path class="st0" d="M244.4,141.1c0,10,0.1,20.1,0.1,30.1c9.3,0,18.6,0.1,27.9,0.1c-0.1-11.7-0.2-23.4-0.3-35.1v-0.1
	c0-3.3,0.1-6.7,0.1-10.1c0-3.5,0-7-0.1-10.5c0-60-37.9-108.8-84.5-108.8c-46.6,0-84.5,48.8-84.5,108.8c0,3.5,0,7,0,10.5
	c0,3.4,0,6.8,0,10.1c0,8.4,0,16.7,0,25.1c9.3,0,18.5,0,27.8,0v-28.1c-4.2-59,30.9-99.1,56.7-98.9c24.3,0.2,56.7,29.9,56.7,88.8
	C244.4,129.1,244.4,135.1,244.4,141.1z M262.2,161.2h-7.8v-45.7c0-50.3-29.9-91.2-66.7-91.2c-36.8,0-66.7,40.9-66.7,91.2v45.7h-7.8
	v-45.7h0c0-54.5,33.4-98.8,74.5-98.8c41.1,0,74.5,44.3,74.5,98.8V161.2z"/>
</svg>
