<?xml version="1.0" encoding="utf-8"?>
<!-- Generator: Adobe Illustrator 21.1.0, SVG Export Plug-In . SVG Version: 6.00 Build 0)  -->
<svg version="1.1" id="Слой_1" xmlns="http://www.w3.org/2000/svg" xmlns:xlink="http://www.w3.org/1999/xlink" x="0px" y="0px"
	 viewBox="0 0 368.6 368.6" style="enable-background:new 0 0 368.6 368.6;" xml:space="preserve">
<style type="text/css">
	.st0{fill:#666666;}
</style>
<path class="st0" d="M248.2,271.5c23.1-10.2,42.9-26.6,57.2-47.5c15.6-22.7,23.8-49.3,23.8-76.9c0-75-61-136-136-136
	s-136,61-136,136c0,27.6,8.2,54.2,23.8,76.9c14.4,20.9,34.1,37.3,57.2,47.5l0.9,0.4l45.7,80.8c1.7,3,4.9,4.8,8.3,4.8
	c3.4,0,6.6-1.8,8.3-4.8l45.7-80.8L248.2,271.5z M232.3,259.7l-39.1,69.1l-39.1-69.1c-1.1-1.9-2.7-3.3-4.7-4.1
	C105,237.6,76.3,195,76.3,147c0-64.5,52.5-117,117-117s117,52.5,117,117c0,48-28.7,90.6-73.2,108.5
	C235.1,256.3,233.4,257.8,232.3,259.7z"/>
<path class="st0" d="M193.3,96.8c-27.3,0-49.5,22.2-49.5,49.5s22.2,49.5,49.5,49.5s49.5-22.2,49.5-49.5S220.6,96.8,193.3,96.8z
	 M193.3,176.8c-16.8,0-30.5-13.7-30.5-30.5s13.7-30.5,30.5-30.5s30.5,13.7,30.5,30.5S210.1,176.8,193.3,176.8z"/>
</svg>
