<?xml version="1.0" encoding="utf-8"?>
<!-- Generator: Adobe Illustrator 21.1.0, SVG Export Plug-In . SVG Version: 6.00 Build 0)  -->
<svg version="1.1" id="Layer_1" xmlns="http://www.w3.org/2000/svg" xmlns:xlink="http://www.w3.org/1999/xlink" x="0px" y="0px"
	 viewBox="0 0 22 21.4" style="enable-background:new 0 0 22 21.4;" xml:space="preserve">
<style type="text/css">
	.st0{fill:#666666;}
</style>
<path class="st0" d="M11.1,11.6c3.2,0,5.8-2.6,5.8-5.8c0-3.2-2.6-5.8-5.8-5.8C7.9,0,5.3,2.6,5.3,5.8C5.3,9,7.9,11.6,11.1,11.6z
	 M11.1,1.4c2.4,0,4.4,2,4.4,4.4c0,2.4-2,4.4-4.4,4.4c-2.4,0-4.4-2-4.4-4.4C6.7,3.4,8.6,1.4,11.1,1.4z"/>
<path class="st0" d="M11.1,13.7c-5.9,0-10.6,2.8-10.6,6.3c0,0.4,0.3,0.7,0.7,0.7c0.4,0,0.7-0.3,0.7-0.7c0-2.7,4.2-4.9,9.2-4.9
	c5,0,9.2,2.2,9.2,4.9c0,0.4,0.3,0.7,0.7,0.7c0.4,0,0.7-0.3,0.7-0.7C21.6,16.5,17,13.7,11.1,13.7z"/>
</svg>
