<?xml version="1.0" encoding="utf-8"?>
<!-- Generator: Adobe Illustrator 21.1.0, SVG Export Plug-In . SVG Version: 6.00 Build 0)  -->
<svg version="1.1" id="Capa_1" xmlns="http://www.w3.org/2000/svg" xmlns:xlink="http://www.w3.org/1999/xlink" x="0px" y="0px"
	 viewBox="0 0 512 512" style="enable-background:new 0 0 512 512;" xml:space="preserve">
<style type="text/css">
	.st0{fill:none;stroke:#01B3FD;stroke-width:14;stroke-miterlimit:10;}
	.st1{fill:#01B3FD;}
	.st2{font-family:'Odin-Bold';}
	.st3{font-size:98.8371px;}
</style>
<g>
	<g>
		<path d="M424.3,0H87.7c-13,0-23.5,10.6-23.5,23.5c0,10.4,6.8,19.3,16.2,22.4l15,435.6c0.6,17.1,14.4,30.5,31.5,30.5h8.8
			c10.4,0,19.2-6.7,22.3-16H339c-0.7-5-1.3-10-1.5-15H151.8c-4.1,0-7.5,3.4-7.5,7.5c0,4.7-3.8,8.5-8.5,8.5h-8.8c-9,0-16.2-7-16.5-16
			l-15-434h264.8c4.1,0,7.5-3.4,7.5-7.5c0-4.1-3.4-7.5-7.5-7.5H87.7c-4.7,0-8.5-3.8-8.5-8.5c0-4.7,3.8-8.5,8.5-8.5h336.7
			c4.7,0,8.5,3.8,8.5,8.5c0,4.7-3.8,8.5-8.5,8.5h-32.1c-4.1,0-7.5,3.4-7.5,7.5c0,4.1,3.4,7.5,7.5,7.5h24.3L403.3,431
			c5.2,0.6,10.3,2.9,14.8,6l13.5-391.1c9.4-3.1,16.2-11.9,16.2-22.4C447.9,10.6,437.3,0,424.3,0z"/>
	</g>
</g>
<g>
	<g>
		<path d="M256,416.8c-4.1,0-7.5,3.4-7.5,7.5v16c0,4.1,3.4,7.5,7.5,7.5s7.5-3.4,7.5-7.5v-16C263.5,420.2,260.1,416.8,256,416.8z"/>
	</g>
</g>
<g>
	<g>
		<path d="M207.9,416.8c-4.1,0-7.5,3.4-7.5,7.5v16c0,4.1,3.4,7.5,7.5,7.5s7.5-3.4,7.5-7.5v-16C215.4,420.2,212,416.8,207.9,416.8z"
			/>
	</g>
</g>
<g>
	<g>
		<path d="M352.2,416.8c-4.1,0-7.5,3.4-7.5,7.5v16c0,4.1,3.4,7.5,7.5,7.5s7.5-3.4,7.5-7.5v-16C359.7,420.2,356.3,416.8,352.2,416.8z
			"/>
	</g>
</g>
<g>
	<g>
		<path d="M159.8,416.8c-4.1,0-7.5,3.4-7.5,7.5v16c0,4.1,3.4,7.5,7.5,7.5s7.5-3.4,7.5-7.5v-16C167.3,420.2,163.9,416.8,159.8,416.8z
			"/>
	</g>
</g>
<g>
	<g>
		<path d="M304.1,416.8c-4.1,0-7.5,3.4-7.5,7.5v16c0,4.1,3.4,7.5,7.5,7.5s7.5-3.4,7.5-7.5v-16C311.6,420.2,308.2,416.8,304.1,416.8z
			"/>
	</g>
</g>
<g>
	<g>
		<path d="M256,320.6c-4.1,0-7.5,3.4-7.5,7.5v16c0,4.1,3.4,7.5,7.5,7.5s7.5-3.4,7.5-7.5v-16C263.5,324,260.1,320.6,256,320.6z"/>
	</g>
</g>
<g>
	<g>
		<path d="M207.9,320.6c-4.1,0-7.5,3.4-7.5,7.5v16c0,4.1,3.4,7.5,7.5,7.5s7.5-3.4,7.5-7.5v-16C215.4,324,212,320.6,207.9,320.6z"/>
	</g>
</g>
<g>
	<g>
		<path d="M352.2,320.6c-4.1,0-7.5,3.4-7.5,7.5v16c0,4.1,3.4,7.5,7.5,7.5s7.5-3.4,7.5-7.5v-16C359.7,324,356.3,320.6,352.2,320.6z"
			/>
	</g>
</g>
<g>
	<g>
		<path d="M159.8,320.6c-4.1,0-7.5,3.4-7.5,7.5v16c0,4.1,3.4,7.5,7.5,7.5s7.5-3.4,7.5-7.5v-16C167.3,324,163.9,320.6,159.8,320.6z"
			/>
	</g>
</g>
<g>
	<g>
		<path d="M304.1,320.6c-4.1,0-7.5,3.4-7.5,7.5v16c0,4.1,3.4,7.5,7.5,7.5s7.5-3.4,7.5-7.5v-16C311.6,324,308.2,320.6,304.1,320.6z"
			/>
	</g>
</g>
<g>
	<g>
		<path d="M280,368.7c-4.1,0-7.5,3.4-7.5,7.5v16c0,4.1,3.4,7.5,7.5,7.5s7.5-3.4,7.5-7.5v-16C287.5,372.1,284.2,368.7,280,368.7z"/>
	</g>
</g>
<g>
	<g>
		<path d="M232,368.7c-4.1,0-7.5,3.4-7.5,7.5v16c0,4.1,3.4,7.5,7.5,7.5s7.5-3.4,7.5-7.5v-16C239.5,372.1,236.1,368.7,232,368.7z"/>
	</g>
</g>
<g>
	<g>
		<path d="M376.2,368.7c-4.1,0-7.5,3.4-7.5,7.5v16c0,4.1,3.4,7.5,7.5,7.5s7.5-3.4,7.5-7.5v-16C383.7,372.1,380.4,368.7,376.2,368.7z
			"/>
	</g>
</g>
<g>
	<g>
		<path d="M135.8,368.7c-4.1,0-7.5,3.4-7.5,7.5v16c0,4.1,3.4,7.5,7.5,7.5s7.5-3.4,7.5-7.5v-16C143.3,372.1,139.9,368.7,135.8,368.7z
			"/>
	</g>
</g>
<g>
	<g>
		<path d="M183.9,368.7c-4.1,0-7.5,3.4-7.5,7.5v16c0,4.1,3.4,7.5,7.5,7.5s7.5-3.4,7.5-7.5v-16C191.4,372.1,188,368.7,183.9,368.7z"
			/>
	</g>
</g>
<g>
	<g>
		<path d="M328.1,368.7c-4.1,0-7.5,3.4-7.5,7.5v16c0,4.1,3.4,7.5,7.5,7.5s7.5-3.4,7.5-7.5v-16C335.6,372.1,332.3,368.7,328.1,368.7z
			"/>
	</g>
</g>
<g>
	<g>
		<path d="M280,272.5c-4.1,0-7.5,3.4-7.5,7.5v16c0,4.1,3.4,7.5,7.5,7.5s7.5-3.4,7.5-7.5v-16C287.5,275.9,284.2,272.5,280,272.5z"/>
	</g>
</g>
<g>
	<g>
		<path d="M232,272.5c-4.1,0-7.5,3.4-7.5,7.5v16c0,4.1,3.4,7.5,7.5,7.5s7.5-3.4,7.5-7.5v-16C239.5,275.9,236.1,272.5,232,272.5z"/>
	</g>
</g>
<g>
	<g>
		<path d="M376.2,272.5c-4.1,0-7.5,3.4-7.5,7.5v16c0,4.1,3.4,7.5,7.5,7.5s7.5-3.4,7.5-7.5v-16C383.7,275.9,380.4,272.5,376.2,272.5z
			"/>
	</g>
</g>
<g>
	<g>
		<path d="M135.8,272.5c-4.1,0-7.5,3.4-7.5,7.5v16c0,4.1,3.4,7.5,7.5,7.5s7.5-3.4,7.5-7.5v-16C143.3,275.9,139.9,272.5,135.8,272.5z
			"/>
	</g>
</g>
<g>
	<g>
		<path d="M183.9,272.5c-4.1,0-7.5,3.4-7.5,7.5v16c0,4.1,3.4,7.5,7.5,7.5s7.5-3.4,7.5-7.5v-16C191.4,275.9,188,272.5,183.9,272.5z"
			/>
	</g>
</g>
<g>
	<g>
		<path d="M328.1,272.5c-4.1,0-7.5,3.4-7.5,7.5v16c0,4.1,3.4,7.5,7.5,7.5s7.5-3.4,7.5-7.5v-16C335.6,275.9,332.3,272.5,328.1,272.5z
			"/>
	</g>
</g>
<g>
	<g>
		<path d="M256,224.5c-4.1,0-7.5,3.4-7.5,7.5v16c0,4.1,3.4,7.5,7.5,7.5s7.5-3.4,7.5-7.5v-16C263.5,227.8,260.1,224.5,256,224.5z"/>
	</g>
</g>
<g>
	<g>
		<path d="M207.9,224.5c-4.1,0-7.5,3.4-7.5,7.5v16c0,4.1,3.4,7.5,7.5,7.5s7.5-3.4,7.5-7.5v-16C215.4,227.8,212,224.5,207.9,224.5z"
			/>
	</g>
</g>
<g>
	<g>
		<path d="M352.2,224.5c-4.1,0-7.5,3.4-7.5,7.5v16c0,4.1,3.4,7.5,7.5,7.5s7.5-3.4,7.5-7.5v-16C359.7,227.8,356.3,224.5,352.2,224.5z
			"/>
	</g>
</g>
<g>
	<g>
		<path d="M159.8,224.5c-4.1,0-7.5,3.4-7.5,7.5v16c0,4.1,3.4,7.5,7.5,7.5s7.5-3.4,7.5-7.5v-16C167.3,227.8,163.9,224.5,159.8,224.5z
			"/>
	</g>
</g>
<g>
	<g>
		<path d="M304.1,224.5c-4.1,0-7.5,3.4-7.5,7.5v16c0,4.1,3.4,7.5,7.5,7.5s7.5-3.4,7.5-7.5v-16C311.6,227.8,308.2,224.5,304.1,224.5z
			"/>
	</g>
</g>
<g>
	<g>
		<path d="M256,128.3c-4.1,0-7.5,3.4-7.5,7.5v16c0,4.1,3.4,7.5,7.5,7.5s7.5-3.4,7.5-7.5v-16C263.5,131.6,260.1,128.3,256,128.3z"/>
	</g>
</g>
<g>
	<g>
		<path d="M207.9,128.3c-4.1,0-7.5,3.4-7.5,7.5v16c0,4.1,3.4,7.5,7.5,7.5s7.5-3.4,7.5-7.5v-16C215.4,131.6,212,128.3,207.9,128.3z"
			/>
	</g>
</g>
<g>
	<g>
		<path d="M352.2,128.3c-4.1,0-7.5,3.4-7.5,7.5v16c0,4.1,3.4,7.5,7.5,7.5s7.5-3.4,7.5-7.5v-16C359.7,131.6,356.3,128.3,352.2,128.3z
			"/>
	</g>
</g>
<g>
	<g>
		<path d="M159.8,128.3c-4.1,0-7.5,3.4-7.5,7.5v16c0,4.1,3.4,7.5,7.5,7.5s7.5-3.4,7.5-7.5v-16C167.3,131.6,163.9,128.3,159.8,128.3z
			"/>
	</g>
</g>
<g>
	<g>
		<path d="M304.1,128.3c-4.1,0-7.5,3.4-7.5,7.5v16c0,4.1,3.4,7.5,7.5,7.5s7.5-3.4,7.5-7.5v-16C311.6,131.6,308.2,128.3,304.1,128.3z
			"/>
	</g>
</g>
<g>
	<g>
		<path d="M280,176.4c-4.1,0-7.5,3.4-7.5,7.5v16c0,4.1,3.4,7.5,7.5,7.5s7.5-3.4,7.5-7.5v-16C287.5,179.7,284.2,176.4,280,176.4z"/>
	</g>
</g>
<g>
	<g>
		<path d="M232,176.4c-4.1,0-7.5,3.4-7.5,7.5v16c0,4.1,3.4,7.5,7.5,7.5s7.5-3.4,7.5-7.5v-16C239.5,179.7,236.1,176.4,232,176.4z"/>
	</g>
</g>
<g>
	<g>
		<path d="M376.2,176.4c-4.1,0-7.5,3.4-7.5,7.5v16c0,4.1,3.4,7.5,7.5,7.5s7.5-3.4,7.5-7.5v-16C383.7,179.7,380.4,176.4,376.2,176.4z
			"/>
	</g>
</g>
<g>
	<g>
		<path d="M135.8,176.4c-4.1,0-7.5,3.4-7.5,7.5v16c0,4.1,3.4,7.5,7.5,7.5s7.5-3.4,7.5-7.5v-16C143.3,179.7,139.9,176.4,135.8,176.4z
			"/>
	</g>
</g>
<g>
	<g>
		<path d="M183.9,176.4c-4.1,0-7.5,3.4-7.5,7.5v16c0,4.1,3.4,7.5,7.5,7.5s7.5-3.4,7.5-7.5v-16C191.4,179.7,188,176.4,183.9,176.4z"
			/>
	</g>
</g>
<g>
	<g>
		<path d="M328.1,176.4c-4.1,0-7.5,3.4-7.5,7.5v16c0,4.1,3.4,7.5,7.5,7.5s7.5-3.4,7.5-7.5v-16C335.6,179.7,332.3,176.4,328.1,176.4z
			"/>
	</g>
</g>
<g>
	<g>
		<path d="M280,80.2c-4.1,0-7.5,3.4-7.5,7.5v16c0,4.1,3.4,7.5,7.5,7.5s7.5-3.4,7.5-7.5v-16C287.5,83.5,284.2,80.2,280,80.2z"/>
	</g>
</g>
<g>
	<g>
		<path d="M232,80.2c-4.1,0-7.5,3.4-7.5,7.5v16c0,4.1,3.4,7.5,7.5,7.5s7.5-3.4,7.5-7.5v-16C239.5,83.5,236.1,80.2,232,80.2z"/>
	</g>
</g>
<g>
	<g>
		<path d="M376.2,80.2c-4.1,0-7.5,3.4-7.5,7.5v16c0,4.1,3.4,7.5,7.5,7.5s7.5-3.4,7.5-7.5v-16C383.7,83.5,380.4,80.2,376.2,80.2z"/>
	</g>
</g>
<g>
	<g>
		<path d="M135.8,80.2c-4.1,0-7.5,3.4-7.5,7.5v16c0,4.1,3.4,7.5,7.5,7.5s7.5-3.4,7.5-7.5v-16C143.3,83.5,139.9,80.2,135.8,80.2z"/>
	</g>
</g>
<g>
	<g>
		<path d="M183.9,80.2c-4.1,0-7.5,3.4-7.5,7.5v16c0,4.1,3.4,7.5,7.5,7.5s7.5-3.4,7.5-7.5v-16C191.4,83.5,188,80.2,183.9,80.2z"/>
	</g>
</g>
<g>
	<g>
		<path d="M328.1,80.2c-4.1,0-7.5,3.4-7.5,7.5v16c0,4.1,3.4,7.5,7.5,7.5s7.5-3.4,7.5-7.5v-16C335.6,83.5,332.3,80.2,328.1,80.2z"/>
	</g>
</g>
<circle class="st0" cx="393.4" cy="478.4" r="54.5"/>
<text transform="matrix(1 0 0 1 365.7314 513.4597)" class="st1 st2 st3">+</text>
</svg>
