<?xml version="1.0" encoding="utf-8"?>
<!-- Generator: Adobe Illustrator 21.1.0, SVG Export Plug-In . SVG Version: 6.00 Build 0)  -->
<svg version="1.1" id="Capa_1" xmlns="http://www.w3.org/2000/svg" xmlns:xlink="http://www.w3.org/1999/xlink" x="0px" y="0px"
	 viewBox="0 0 553.1 539.9" style="enable-background:new 0 0 553.1 539.9;" xml:space="preserve">
<style type="text/css">
	.st0{fill:#1ACE91;}
	.st1{fill:none;stroke:#1ACE91;stroke-width:14;stroke-miterlimit:10;}
	.st2{font-family:'Odin-Bold';}
	.st3{font-size:98.8371px;}
</style>
<path class="st0" d="M319.4,103.1c2.4-0.6,4.8-1.2,7.2-1.7c3.4-0.7,6.1,1.8,6.3,4.7c2.8-1.3,5.6-2.5,8.4-3.8
	c-2.3-3.7-5.6-6.6-9.7-8.3c-6.8-2.8-10.7-9.9-9.4-17.3c1.1-6.1,6.3-11.3,12.4-12.4c4.7-0.8,9.3,0.4,12.9,3.4c3.5,3,5.6,7.3,5.6,11.9
	c0,3.9,3.2,7.1,7,7.1c3.9,0,7.1-3.2,7.1-7.1c0-8.8-3.9-17.1-10.6-22.7c-6.7-5.7-15.6-8-24.4-6.5c-12,2.1-21.8,11.9-23.9,23.9
	C306.4,85.6,310.8,96.5,319.4,103.1z"/>
<g>
	<path d="M453.6,239.5l-30.5-97.6c-5.5-17.7-19.4-31.4-37.1-36.7c-12.9-3.9-28.4-8.5-39.9-11.9c-7.8-2.3-15.9-0.4-21.8,4.6
		c-1.5,0.6-3.1,1.1-4.8,1.6l-1.7-0.5c-2.4,6.9-6.1,13.2-10.3,19.2c2-0.4,4.1-0.9,6-1.4c-10.9,21.6-33,35.5-57.7,35.5
		c-24.6,0-46.8-14-57.7-35.5c0.7,0.2,1.5,0.4,2.2,0.5c-2.6-4.7-5.6-11.4-4-15.7c0-0.5,0.1-0.9,0.2-1.4c0.3-0.9,0.7-1.7,1.4-2.5
		l-5.7,1.8c-1.6-0.5-3.2-1.1-4.8-1.6c-5.8-4.9-13.9-6.9-21.8-4.6c-11.5,3.4-27,8-39.9,11.9c-17.7,5.3-31.6,19-37.1,36.7l-30.5,97.6
		c-2.2,7,0.9,14.6,7.3,18.2l62.6,34.8v204c0,8.6,7,15.5,15.5,15.5h224.5c8.6,0,15.5-7,15.5-15.5v-204l62.6-34.8
		C452.7,254.2,455.8,246.5,453.6,239.5z M408.8,146.3l20.8,66.7l-45.9,25.5v-28.1c0-6,1.1-12,3.3-17.6l19.9-51.3
		C407.6,143.1,408.3,144.7,408.8,146.3z M128.3,275.3L128.3,275.3L73,244.6c-0.2-0.1-0.3-0.4-0.2-0.6l5.1-16.4l50.4,28V275.3z
		 M128.3,238.5L82.4,213l20.8-66.7c0.5-1.6,1.1-3.2,1.8-4.8l19.9,51.3c2.2,5.6,3.3,11.5,3.3,17.6V238.5z M373.1,187.4
		c-2.9,7.4-4.3,15.1-4.3,23v286.1c0,0.3-0.2,0.5-0.5,0.5H143.8c-0.3,0-0.5-0.2-0.5-0.5V210.4c0-7.9-1.4-15.6-4.3-23l-23.2-59.9
		c4.2-3.6,9.1-6.3,14.6-7.9c5.5-1.6,11.4-3.4,17.4-5.2c12.2,49.5,57,85,108.3,85c23.4,0,45.7-7.1,64.7-20.7
		c3.4-2.4,4.2-7.1,1.8-10.5c-2.4-3.4-7.1-4.2-10.5-1.8c-16.4,11.7-35.7,17.9-55.9,17.9c-44.6,0-83.7-31.1-93.9-74.3
		c2.8-0.8,5.5-1.6,8.1-2.4c4.4-1.3,9,1.2,10.5,5.6c11,32.3,41.3,54,75.4,54c34.1,0,64.4-21.7,75.4-54c1.5-4.4,6.1-6.9,10.5-5.6
		c2.5,0.7,5.2,1.6,8.1,2.4c-3.2,13.4-9.3,26.2-17.8,37.1c-2.5,3.3-2,8,1.3,10.5c1.4,1.1,3,1.6,4.6,1.6c2.2,0,4.4-1,5.9-2.9
		c9.7-12.4,16.6-26.8,20.4-42c5.9,1.8,11.9,3.5,17.4,5.2c5.4,1.6,10.4,4.4,14.6,7.9L373.1,187.4z M439,244.6l-55.3,30.7v-19.7
		l50.4-28l5.1,16.4C439.4,244.2,439.3,244.5,439,244.6z"/>
</g>
<path class="st0" d="M243.8,60.7c2.7,1.1,4.5,4.2,4.5,7.5v13.9l-55.9,17.4c1.8,7.3,3.1,10.6,5.9,17.2c15.7,3.4,39,6.4,57.5,6.4
	c19.5,0,41.6-2.7,57.9-6.4c1.7-3.9,2.6-5.5,4.3-8.3c2-3.2,4.3-7.5,6.4-10.6c-0.6,0.2-4.3,1.4-5,1.6l-56.1-17.4V68.2
	c0-9.5-5.4-17.9-13.8-21.4c-7.2-3-11.3-10.5-10-18.4c1.1-6.5,6.7-12.1,13.2-13.2c5-0.9,9.9,0.4,13.7,3.6c3.8,3.2,5.9,7.8,5.9,12.7
	c0,4.1,3.4,7.5,7.5,7.5s7.5-3.4,7.5-7.5c0-9.3-4.1-18.2-11.3-24.2c-7.2-6-16.6-8.5-25.9-6.9c-12.7,2.2-23.2,12.7-25.4,25.4
	C222.2,40.6,230,55,243.8,60.7z M255.8,95.5l33.9,10.5c-10.7,1.5-22.1,2.2-33.9,2.2c-11.8,0-23.2-0.8-33.9-2.2L255.8,95.5z"/>
<path d="M410,519.3c0-0.8,0.2-1.5,0.5-2.1H232.1c-0.3,0-0.5-0.2-0.5-0.5v-17.5c-4.7-0.2-9.4,0-14.1,0.4v17.1c0,8,6.5,14.6,14.6,14.6
	h181.1C411.1,527.7,409.8,523.7,410,519.3z"/>
<path d="M523.3,275.1l-28.7-91.8c-5.2-16.6-18.2-29.5-34.9-34.5c-12.1-3.6-26.7-8-37.5-11.2c-2.1-0.6-4.1-0.9-6.2-0.9
	c10.6,10.9,14.6,25.6,16,40.9c3.1-6.5,5.6-13.3,7.3-20.2c5.6,1.7,11.2,3.3,16.3,4.9c5.1,1.5,9.8,4.1,13.7,7.5l-21.8,56.3
	c-2.7,6.9-4.1,14.2-4.1,21.6v194.9c3.8-4.7,8.5-8.2,14.1-7.9V324.9l58.8-32.7C522.5,288.9,525.4,281.7,523.3,275.1z M457.7,247.8
	c0-5.7,1-11.2,3.1-16.5l18.7-48.2c0.7,1.5,1.2,3,1.7,4.5l19.6,62.7l-43.1,23.9V247.8z M509.7,279.9l-52,28.9v-18.5l47.4-26.3
	l4.8,15.4C510,279.6,509.9,279.8,509.7,279.9z"/>
<circle class="st1" cx="457.5" cy="487.8" r="54.5"/>
<text transform="matrix(1 0 0 1 429.8604 522.8699)" class="st0 st2 st3">+</text>
</svg>
