<?xml version="1.0" encoding="utf-8"?>
<!-- Generator: Adobe Illustrator 21.1.0, SVG Export Plug-In . SVG Version: 6.00 Build 0)  -->
<svg version="1.1" id="_x2014_лой_1" xmlns="http://www.w3.org/2000/svg" xmlns:xlink="http://www.w3.org/1999/xlink" x="0px"
	 y="0px" viewBox="0 0 99.1 107.5" style="enable-background:new 0 0 99.1 107.5;" xml:space="preserve">
<style type="text/css">
	.st0{fill-rule:evenodd;clip-rule:evenodd;fill:none;stroke:#5D9FD9;stroke-width:0.4252;stroke-miterlimit:22.9256;}
	.st1{fill-rule:evenodd;clip-rule:evenodd;fill:none;stroke:#64AC7B;stroke-width:0.4252;stroke-miterlimit:22.9256;}
	.st2{fill-rule:evenodd;clip-rule:evenodd;fill:#6AB1C4;stroke:#64AC7B;stroke-width:0.4252;stroke-miterlimit:22.9256;}
	.st3{opacity:0.2;fill-rule:evenodd;clip-rule:evenodd;fill:#64AC7B;stroke:#64AC7B;stroke-width:0.216;stroke-miterlimit:22.9256;}
	.st4{opacity:0.2;fill-rule:evenodd;clip-rule:evenodd;fill:#5D9FD9;}
	
		.st5{opacity:0.2;fill-rule:evenodd;clip-rule:evenodd;fill:#5D9FD9;stroke:#5D9FD9;stroke-width:0.4252;stroke-miterlimit:22.9256;}
	
		.st6{opacity:0.2;fill-rule:evenodd;clip-rule:evenodd;fill:#64AC7B;stroke:#64AC7B;stroke-width:0.4252;stroke-miterlimit:22.9256;}
</style>
<g>
	<path class="st0" d="M29.2,27.1c0,0.1,0,0.3,0,0.4C29,28.4,29,29,29.4,29.8c0.5,1.1-0.5,6-0.9,7.2c-0.1,0.5,0,0.6-0.4,1
		c-1.3,1.8-7.8,0.2-7.5-2.6c0,0,0-0.1,0.1-0.1c0,0,0.1,0,0.1,0.1c-0.2,2.6,6.1,4.2,7.3,2.5c0.3-0.4,0.2-0.6,0.3-1
		c0.3-1.2,1.4-6.1,0.9-7.1c-0.4-0.8-0.4-1.4-0.3-2.3c0-0.1,0-0.3,0-0.4C29,27.1,29,27,29.2,27.1C29.1,27.1,29.2,27.1,29.2,27.1z"/>
</g>
<path class="st0" d="M29.1,27.1c0,0.1,0,0.3,0,0.4c-0.1,1.4-0.1,1.7,0.2,2.3c0.4,0.7-0.1,4.4-0.9,7.2c-0.1,0.3,0,0.6-0.3,1
	c-1.2,1.7-7.6,0.2-7.4-2.5"/>
<g>
	<path class="st0" d="M23.8,30.1c0.5-0.4,1.1-0.6,1.7-0.8c0,0,0.1,0,0.1,0.1c0,0,0,0.1-0.1,0.1c-0.6,0.1-1.1,0.4-1.6,0.7
		c0,0-0.1,0-0.1,0C23.8,30.2,23.8,30.2,23.8,30.1z"/>
</g>
<path class="st0" d="M23.8,30.2c0.5-0.4,1-0.6,1.6-0.8"/>
<ellipse transform="matrix(9.370786e-02 -0.9956 0.9956 9.370786e-02 -7.4969 52.0719)" class="st0" cx="24.9" cy="30.2" rx="0.5" ry="0.1"/>
<ellipse transform="matrix(8.183340e-02 -0.9966 0.9966 8.183340e-02 -2.9326 54.9499)" class="st0" cx="28.4" cy="29.1" rx="0.4" ry="0.1"/>
<g>
	<path class="st0" d="M27.9,30.5c0.1,0.6,0.3,1.2,0.6,1.8c0.3,0.9-1.2,0.5-1.6,0.5c0,0-0.1,0-0.1-0.1c0,0,0-0.1,0.1-0.1
		c0.3,0,1.7,0.3,1.5-0.3c-0.3-0.6-0.5-1.2-0.6-1.8C27.7,30.5,27.8,30.5,27.9,30.5C27.9,30.5,27.9,30.5,27.9,30.5z"/>
</g>
<path class="st0" d="M27.8,30.6c0.1,0.6,0.3,1.2,0.6,1.8c0.3,0.8-1.2,0.4-1.5,0.4"/>
<g>
	<path class="st0" d="M25.8,34.8c0.9,0.2,1.7,0.4,2.5-0.1c0,0,0.1,0,0.1,0c0,0,0,0.1,0,0.1c-0.9,0.5-1.6,0.4-2.6,0.1
		C25.8,34.9,25.7,34.9,25.8,34.8C25.8,34.8,25.8,34.8,25.8,34.8z"/>
</g>
<path class="st0" d="M25.8,34.8c1.3,0.3,1.8,0.3,2.6-0.1"/>
<g>
	<path class="st0" d="M26.5,35.7c0.3,0.2,0.8,0.1,1.2,0.1c0,0,0.1,0,0.1,0.1c0,0,0,0.1-0.1,0.1c-0.4,0.1-0.9,0.1-1.3-0.1
		C26.4,35.8,26.4,35.8,26.5,35.7C26.4,35.7,26.5,35.7,26.5,35.7z"/>
</g>
<path class="st0" d="M26.5,35.8c0.3,0.1,0.8,0.2,1.2,0.1"/>
<g>
	<path class="st0" d="M25.8,34.4c0,0.3-0.3,0.8-0.6,1c0,0-0.1,0-0.1,0c0,0,0-0.1,0-0.1c0.2-0.2,0.5-0.6,0.5-0.9
		C25.7,34.3,25.7,34.3,25.8,34.4C25.8,34.3,25.9,34.3,25.8,34.4z"/>
</g>
<path class="st0" d="M25.8,34.4c0,0.4-0.3,0.8-0.5,1"/>
<g>
	<path class="st0" d="M14,27.4c-0.7,3.3,0,6.7,3,8.6c1.6,0.8,2.8-1.1,2.1-1c-1.2,0.1-1.8-0.5-2-1.7c-0.1-0.7,0-1.6,0.7-1.9
		c0.5-0.2,1,0,1.3,0.4c0.5,1,0.9,1.3,0.9,0c0.1-1.6-0.3-3.4,0-5c0,0,0-0.1,0.1-0.1c0,0,0.1,0,0.1,0.1c-0.3,1.5,0.1,3.4,0,5
		c-0.1,1.5-0.6,1.2-1.2,0.1c-0.2-0.4-0.7-0.5-1.1-0.4c-0.7,0.3-0.7,1.1-0.6,1.7c0.2,1.1,0.7,1.7,1.8,1.6c1-0.1-0.3,2.2-2.2,1.3
		c-3.1-1.9-3.8-5.4-3.1-8.7C13.8,27.3,13.9,27.3,14,27.4C13.9,27.3,14,27.3,14,27.4z"/>
</g>
<path class="st0" d="M13.9,27.4c-1,4.8,1.1,7.4,3.1,8.6c1.7,0.8,3-1.3,2.1-1.2c-0.6,0.1-1.6,0.1-1.9-1.6c-0.2-2.1,1.5-2.2,1.9-1.4
	c0.6,1.3,1,1.1,1.1-0.1c0.1-1.7-0.3-3.5,0-5"/>
<g>
	<path class="st0" d="M19,34.2c-0.8-0.1-0.9-0.8-0.2-1.1c0,0,0.1,0,0.1,0c0,0,0,0.1,0,0.1c-0.5,0.3-0.4,0.8,0.2,0.9
		C19.1,34.1,19.1,34.1,19,34.2C19.1,34.2,19,34.2,19,34.2z"/>
</g>
<path class="st0" d="M19,34.1c-0.8-0.1-0.6-0.8-0.2-1"/>
<g>
	<path class="st0" d="M26.8,40c1,6.6,1.1,14.2-0.4,20.7c0,0,0,0.1-0.1,0.1c0,0-0.1,0-0.1-0.1c1.5-6.5,1.4-14.1,0.4-20.7
		C26.7,40,26.7,40,26.8,40C26.8,40,26.8,40,26.8,40z"/>
</g>
<path class="st0" d="M26.7,40c1,6.6,1.1,14.2-0.4,20.7"/>
<g>
	<path class="st0" d="M10.3,75.3c3.8,1.7,7.7,2.2,11.8,2l0.1-2.7c0,0,0-0.1,0.1-0.1c0,0,0.1,0,0.1,0.1l-0.1,2.8c0,0,0,0.1-0.1,0.1
		c-4.2,0.2-8.1-0.3-11.9-2.1c0,0,0,0,0-0.1c0-1.1,0-2.1,0.1-3.2c0-0.1,0-0.1,0-0.2c0,0,0-0.1,0.1-0.1c0,0,0.1,0,0.1,0.1
		c0,0.1,0,0.1,0,0.2C10.3,73.3,10.3,74.3,10.3,75.3z"/>
</g>
<path class="st0" d="M22.2,74.6l-0.1,2.8c-4,0.2-8-0.2-11.9-2.1c0-1.1,0-2.2,0.1-3.2c0-0.1,0-0.1,0-0.2"/>
<g>
	<path class="st0" d="M17.7,39.2c1.7,1.5,5,2.4,6.9,1c0,0,0.1,0,0.1,0c0,0,0,0.1,0,0.1c-2,1.5-5.4,0.6-7.1-1c0,0,0-0.1,0-0.1
		C17.7,39.2,17.7,39.2,17.7,39.2z"/>
</g>
<path class="st0" d="M17.7,39.3c1.9,1.7,5.2,2.3,7,1"/>
<g>
	<path class="st0" d="M18.2,41.2c1.5,1.2,5.4,1.7,6.9,0.2c0,0,0.1,0,0.1,0c0,0,0,0.1,0,0.1c-1.6,1.5-5.5,1.1-7.1-0.2
		c0,0,0-0.1,0-0.1C18.1,41.2,18.2,41.2,18.2,41.2z"/>
</g>
<path class="st0" d="M18.2,41.3c1.4,1.1,5.3,1.8,7,0.2"/>
<g>
	<path class="st0" d="M17.3,38.2c-1.1,0.5-2.1,1.4-2.9,2.3c0,0-0.1,0-0.1,0c0,0,0-0.1,0-0.1c0.9-0.9,1.8-1.8,3-2.3
		C17.2,38.1,17.3,38.1,17.3,38.2C17.3,38.2,17.3,38.2,17.3,38.2z"/>
</g>
<path class="st0" d="M17.2,38.2c-1.1,0.5-2.1,1.4-3,2.3"/>
<g>
	<path class="st0" d="M32.4,42.7c-1-0.7-2.1-1.4-3.2-1.9c-0.8-0.3-1.6-0.5-2.4-0.8l-1.9-1.2c0,0,0-0.1,0-0.1c0,0,0.1,0,0.1,0
		l1.8,1.2c0.8,0.2,1.7,0.4,2.4,0.7c1.1,0.4,2.3,1.2,3.3,1.9c0,0,0,0,0,0c0.7,1.8,0.2,4.6,0.2,6.5c0,0,0,0.1-0.1,0.1s-0.1,0-0.1-0.1
		C32.5,47.3,33.1,44.5,32.4,42.7z"/>
</g>
<path class="st0" d="M32.6,49.1c0-1.6,0.5-4.7-0.2-6.5c-3-2-3.1-1.9-5.7-2.6l-1.9-1.2"/>
<g>
	<path class="st0" d="M14.3,40.5c0.3,3.6,2.1,8.2,3.3,11.6c0,0,0,0.1,0,0.1c0,0-0.1,0-0.1,0c-1.1-3.5-3-8.1-3.3-11.7
		C14.2,40.4,14.2,40.4,14.3,40.5C14.3,40.4,14.3,40.4,14.3,40.5z"/>
</g>
<path class="st0" d="M14.3,40.5c0.3,3.3,2.2,8.4,3.3,11.6"/>
<g>
	<path class="st0" d="M8.8,43.1c2,0.3,2.9,5.5,3.1,6.9c0.3,1.9,0.5,4.7,0.2,6.5c0,0,0,0.1-0.1,0.1c0,0-0.1,0-0.1-0.1
		c0.3-1.8,0-4.6-0.2-6.5c-0.2-1.4-1.1-6.8-3.1-6.8c0,0-0.1,0-0.1,0c0,0,0-0.1,0-0.1c1.7-1.3,3.6-2.3,5.7-2.7c0,0,0.1,0,0.1,0.1
		c0,0,0,0.1-0.1,0.1C12.2,40.9,10.4,41.8,8.8,43.1z"/>
</g>
<path class="st0" d="M12.1,56.5c0.5-3.2-0.6-13.4-3.4-13.4c1.6-1.3,3.4-2.2,5.7-2.7"/>
<g>
	<path class="st0" d="M32.7,50.5c0,2.7-0.3,5.4-0.3,8.2c0,1.7,0,3.4,0,5c0,0.9,0,2.3-0.3,3.2c0,0-0.1,0.1-0.1,0c0,0-0.1-0.1,0-0.1
		c0.3-0.9,0.3-2.2,0.3-3.1c0-1.7,0-3.4,0-5c0-2.7,0.3-5.4,0.3-8.2C32.6,50.4,32.6,50.4,32.7,50.5C32.7,50.4,32.7,50.4,32.7,50.5z"/>
</g>
<path class="st0" d="M32.7,50.5c0,3-0.3,5.7-0.3,8.2c-0.1,3.8,0.1,6.9-0.3,8.2"/>
<g>
	<path class="st0" d="M28.2,77.5c1.6,0,3.3-0.2,4.8-0.7c-0.3-2.4-0.6-4.8-0.9-7.2c-0.2-1.6-0.4-3.4-0.3-5c0,0,0-0.1,0.1-0.1
		c0,0,0.1,0,0.1,0.1c-0.1,1.6,0.1,3.4,0.3,5c0.3,2.4,0.6,4.9,0.9,7.3c0,0,0,0.1-0.1,0.1c-1.6,0.5-3.3,0.7-5,0.7c0,0-0.1,0-0.1-0.1
		l-0.4-3.9c0,0,0-0.1,0.1-0.1c0,0,0.1,0,0.1,0.1L28.2,77.5z"/>
</g>
<path class="st0" d="M31.9,64.6c-0.1,2.4,0.5,6.9,1.2,12.3c-1.5,0.4-3.3,0.7-4.9,0.7l-0.4-3.9"/>
<line class="st0" x1="26" y1="68.3" x2="27" y2="68.2"/>
<g>
	<path class="st0" d="M24,71.1c1.1,0.3,3.5,0.1,4.6-0.3c0,0,0.1,0,0.1,0c0,0,0,0.1,0,0.1c-1.1,0.4-3.5,0.6-4.6,0.3
		C23.9,71.2,23.9,71.2,24,71.1C23.9,71.1,24,71.1,24,71.1z"/>
</g>
<path class="st0" d="M24,71.1c1.3,0.3,3.6,0.1,4.6-0.3"/>
<g>
	<path class="st0" d="M23.8,72.5c0.9,0.3,3,0.1,3.9-0.1c0,0,0.1,0,0.1,0.1c0,0,0,0.1-0.1,0.1c-0.9,0.2-3.1,0.4-4,0.1
		C23.7,72.6,23.7,72.6,23.8,72.5C23.7,72.5,23.7,72.5,23.8,72.5z"/>
</g>
<path class="st0" d="M23.7,72.6c0.8,0.3,3,0.1,4-0.1"/>
<g>
	<path class="st0" d="M23.6,73.7c0.9,0.3,2.5,0.1,3.4,0c0,0,0.1,0,0.1,0.1c0,0,0,0.1-0.1,0.1c-0.9,0.2-2.6,0.4-3.5,0
		C23.5,73.9,23.5,73.8,23.6,73.7C23.5,73.7,23.6,73.7,23.6,73.7z"/>
</g>
<path class="st0" d="M23.6,73.8c0.7,0.3,2.1,0.2,3.4,0"/>
<g>
	<path class="st0" d="M28.7,70.9c0.5,0.2,0.4,1.3-0.8,1.6c0.4,0.3,0.1,1.1-0.8,1.3c0.4,0.4-0.3,1.1-1,1.1c-1.9,0.1-4.8-0.4-6.5-1.3
		c0,0,0-0.1,0-0.1c0,0,0.1,0,0.1,0c1.7,0.9,4.6,1.3,6.4,1.3c0.6,0,1.3-0.7,0.8-0.9c0,0,0,0,0-0.1c0,0,0-0.1,0.1-0.1
		c0.4-0.1,1.3-0.5,1-1c-0.1-0.1-0.1-0.1-0.3-0.2c0,0-0.1,0-0.1-0.1c0,0,0-0.1,0.1-0.1c1.3-0.2,1.5-1.5,0.9-1.4c0,0-0.1,0-0.1-0.1
		c0,0,0-0.1,0-0.1c0.2-0.1,0.4-0.3,0.3-0.5c-0.1-0.5-1.2-0.3-1.5-0.3c-1.2,0.1-2.2,0.4-3.5,0c0,0-0.1,0-0.1-0.1c0,0,0-0.1,0.1-0.1
		c1.2,0.3,2.2,0.1,3.4,0c0.4-0.1,1.6-0.2,1.7,0.4C29,70.6,28.9,70.7,28.7,70.9z"/>
</g>
<path class="st0" d="M23.9,70.1c1.2,0.3,2,0.1,3.5,0c1.7-0.4,1.9,0.5,1.2,0.9c0.7,0,0.7,1.3-0.9,1.6c0.6,0.1,0.5,1.1-0.8,1.3
	c0.5,0.2,0,1-0.9,1.1c-1.9,0.1-4.8-0.4-6.5-1.3"/>
<g>
	<path class="st0" d="M21.1,69.6c1.6-0.1,2.8-0.6,3.8-1.9c0.7-0.8,1.6,0,0.8,1.2c-0.3,0.5-0.9,1-1.3,1.3c0,0-0.1,0-0.1,0
		c0,0,0-0.1,0-0.1c0.4-0.3,1-0.9,1.2-1.3c0.6-1,0-1.7-0.6-1c-1,1.3-2.3,1.9-3.9,1.9C21.1,69.7,21,69.7,21.1,69.6
		C21,69.6,21.1,69.6,21.1,69.6z"/>
</g>
<path class="st0" d="M21.1,69.6c1.3,0,2.7-0.5,3.8-1.9c0.6-0.7,1.5-0.1,0.7,1.1c-0.3,0.5-0.9,1.1-1.3,1.3"/>
<g>
	<path class="st0" d="M8.2,63.1c4.1,1.2,8.5,3.5,12.4,5.4c0.7,0.3,0.7,0.3,0.4,1.1l-1.8,4.9c-0.2,0.5-0.1,0.4-0.6,0.3
		C13.3,73.6,8.1,71.4,3.2,69c-1.6-0.8-1-2.3-0.2-3.5c0,0,0.1,0,0.1,0c0,0,0,0.1,0,0.1c-0.7,1.1-1.4,2.5,0.2,3.3
		c4.9,2.4,10.1,4.6,15.4,5.8c0,0,0.3,0.1,0.3,0.1c0,0,0.1-0.3,0.1-0.3l1.8-4.9c0.2-0.7,0.3-0.6-0.3-0.9c-3.9-1.9-8.2-4.1-12.4-5.4
		C8.2,63.2,8.1,63.2,8.2,63.1C8.2,63.1,8.2,63.1,8.2,63.1z"/>
</g>
<path class="st0" d="M8.2,63.2c3.8,1.1,8.6,3.5,12.4,5.4c0.6,0.3,0.6,0.3,0.4,1l-1.8,4.9c-0.2,0.4-0.1,0.4-0.5,0.3
	c-3.7-0.9-8.3-2.4-15.4-5.8C1.8,68.2,2.1,67,3,65.5"/>
<g>
	<path class="st0" d="M2.2,67.5c-0.1-1.6,0.2-3.5,0.4-5c0.3-2.4,0.7-4.8,1.2-7.1C4.3,53.1,6.3,44,8.6,43.1c0,0,0.1,0,0.1,0
		c0,0,0,0.1,0,0.1c-2.2,0.9-4.2,10-4.7,12.2c-0.5,2.3-0.9,4.7-1.2,7.1c-0.2,1.6-0.4,3.4-0.4,5C2.3,67.5,2.3,67.6,2.2,67.5
		C2.2,67.6,2.2,67.5,2.2,67.5z"/>
</g>
<path class="st0" d="M2.2,67.5c-0.2-4.7,3.2-23,6.4-24.4"/>
<g>
	<path class="st0" d="M32.5,42.6c1.5,1.1,2.3,8.1,2.5,9.9c0.3,2,1,8,2.2,9.5c0,0,0,0.1,0,0.1c0,0-0.1,0-0.1,0
		c-1.2-1.6-1.9-7.5-2.2-9.6c-0.3-1.8-1.1-8.8-2.5-9.8c0,0,0-0.1,0-0.1C32.4,42.6,32.4,42.6,32.5,42.6z"/>
</g>
<path class="st0" d="M32.4,42.7c2.4,1.7,2.6,16.7,4.7,19.4"/>
<g>
	<path class="st0" d="M45.9,68.6c-0.3,0.3-0.6,0.6-0.8,0.9c-0.5,0.6-0.5,0.9-1.4,0.7l-8.5-1.9c-0.9-0.2-2.6-0.8-3.1-1.6
		c0,0,0-0.1,0-0.1c0,0,0.1,0,0.1,0c0.4,0.8,2.1,1.4,3,1.5l8.5,1.9c0.8,0.2,0.8,0,1.2-0.6c0.3-0.3,0.6-0.6,0.9-0.9c0,0,0.1,0,0.1,0
		C45.9,68.5,45.9,68.6,45.9,68.6z"/>
</g>
<path class="st0" d="M45.8,68.5c-0.4,0.4-0.7,0.7-0.8,0.9c-0.5,0.6-0.5,0.8-1.3,0.7l-8.5-1.9c-1.2-0.3-2.6-0.9-3-1.6"/>
<g>
	<path class="st0" d="M44.2,63.8c-1.6,1.7-3.1,3.5-4.2,5.6c0,0-0.1,0-0.1,0c0,0,0-0.1,0-0.1c1.1-2.1,2.5-3.9,4.2-5.6
		c0,0,0.1,0,0.1,0C44.2,63.7,44.2,63.7,44.2,63.8z"/>
</g>
<path class="st0" d="M44.1,63.7c-1.6,1.6-3,3.5-4.2,5.6"/>
<g>
	<path class="st0" d="M43.3,63.5c-1.6,1.7-3,3.6-4.3,5.6c0,0-0.1,0-0.1,0c0,0,0-0.1,0-0.1c1.3-2,2.7-3.9,4.3-5.6c0,0,0.1,0,0.1,0
		C43.3,63.4,43.3,63.5,43.3,63.5z"/>
</g>
<path class="st0" d="M43.2,63.5c-1.5,1.7-3,3.6-4.3,5.6"/>
<g>
	<path class="st0" d="M45.9,70.6c-0.4-0.1-0.9-0.3-1.3-0.5c0,0-0.1-0.1,0-0.1c0,0,0.1-0.1,0.1,0c0.4,0.2,0.8,0.4,1.3,0.5
		C46,70.5,46,70.5,45.9,70.6C46,70.6,46,70.6,45.9,70.6z"/>
</g>
<path class="st0" d="M46,70.6c-0.4-0.1-0.9-0.3-1.3-0.5"/>
<g>
	<path class="st0" d="M32.7,77.1c0.4,1.5,0.3,4.6,0.3,6.2c-0.1,3.3-0.3,6.7-0.5,10c-0.2,2.2-0.3,4.3-0.5,6.5c0,0,0,0.1-0.1,0.1
		c0,0-0.1,0-0.1-0.1c0.2-2.2,0.4-4.3,0.5-6.5c0.2-3.3,0.5-6.7,0.5-10c0-1.6,0.2-4.7-0.3-6.2C32.5,77.1,32.6,77,32.7,77.1
		C32.6,77,32.7,77,32.7,77.1z"/>
</g>
<path class="st0" d="M32.6,77.1c0.7,2.6-0.1,14-0.8,22.7"/>
<g>
	<path class="st0" d="M10.7,75.7C8.9,78.1,9.8,87.9,10,91c0.2,2.3,0.4,4.5,0.5,6.8c0.1,1.9,0.3,3.7,0.2,5.6c0,0,0,0.1-0.1,0.1
		c0,0-0.1,0-0.1-0.1c0-1.9-0.1-3.7-0.2-5.6c-0.2-2.3-0.4-4.5-0.5-6.8c-0.2-3.1-1.1-12.9,0.7-15.4c0,0,0.1,0,0.1,0
		C10.7,75.6,10.7,75.6,10.7,75.7z"/>
</g>
<path class="st0" d="M10.7,75.6c-2.6,3.6,0.2,20.4,0.1,27.8"/>
<g>
	<path class="st0" d="M13.3,76.5c-0.9,2.3-1,8.7-1.1,11.2c0,1,0,1.9,0,2.9c0,0,0,0.1-0.1,0.1c0,0-0.1,0-0.1-0.1c0-1,0-1.9,0-2.9
		c0-2.6,0.1-9,1.1-11.3C13.1,76.4,13.2,76.4,13.3,76.5C13.3,76.5,13.3,76.5,13.3,76.5z"/>
</g>
<path class="st0" d="M13.2,76.5c-0.9,2-1.1,8.5-1.1,14.1"/>
<g>
	<path class="st0" d="M21.9,83.8l4.7-2.7c0,0,0.1,0,0.1,0c0,0,0,0.1,0,0.1L22,83.9C21.9,83.9,21.9,83.9,21.9,83.8
		C21.9,83.8,21.9,83.8,21.9,83.8z"/>
</g>
<line class="st0" x1="21.9" y1="83.8" x2="26.7" y2="81.1"/>
<g>
	<path class="st0" d="M24.2,82.7c-0.1,1.4-0.2,2.8-0.3,4.2c-0.2,2.4-0.4,4.9-0.6,7.3c-0.2,2.2-0.4,4.3-0.6,6.5
		c-0.1,1-0.2,1.9-0.3,2.9c0,0,0,0.1-0.1,0.1c0,0-0.1,0-0.1-0.1c0.1-1,0.2-1.9,0.3-2.9c0.2-2.2,0.4-4.3,0.6-6.5
		c0.2-2.4,0.4-4.9,0.6-7.3c0.1-1.4,0.3-2.8,0.3-4.2C24,82.7,24.1,82.7,24.2,82.7C24.2,82.7,24.2,82.7,24.2,82.7z"/>
</g>
<path class="st0" d="M24.1,82.7c-0.1,1.5-1,11.6-1.6,18c-0.1,1.1-0.2,2.1-0.3,2.9"/>
<g>
	<path class="st0" d="M10.2,63.8l1.8-7.3c0,0,0-0.1,0.1-0.1c0,0,0.1,0,0.1,0.1l-1.8,7.3C10.3,63.9,10.3,63.9,10.2,63.8
		C10.2,63.9,10.2,63.8,10.2,63.8z"/>
</g>
<line class="st0" x1="10.2" y1="63.8" x2="12.1" y2="56.5"/>
<g>
	<path class="st0" d="M41.1,4.4l6.1,6.1c0,0,0,0.1,0,0.1c0,0-0.1,0-0.1,0L41,4.5c0,0,0-0.1,0-0.1C41,4.3,41,4.3,41.1,4.4z"/>
</g>
<line class="st0" x1="41" y1="4.4" x2="47.1" y2="10.5"/>
<g>
	<path class="st0" d="M25.1,38.7c-0.4,0.4-0.3,1-0.2,1.5c0,0,0,0.1-0.1,0.1c0,0-0.1,0-0.1-0.1c-0.1-0.5-0.1-1.2,0.3-1.6
		c0,0,0.1,0,0.1,0C25.1,38.7,25.1,38.7,25.1,38.7z"/>
</g>
<path class="st0" d="M25,38.7c-0.3,0.3-0.4,0.8-0.3,1.6"/>
<g>
	<path class="st0" d="M18.3,53.7c0.3,0.6,0.5,1.2,0.8,1.8c1,2,2.2,4,3.5,5.7c0,0,0,0.1,0,0.1c0,0-0.1,0-0.1,0
		c-1.4-1.8-2.6-3.7-3.6-5.7c-0.3-0.6-0.6-1.2-0.8-1.8C18.2,53.7,18.2,53.6,18.3,53.7C18.2,53.6,18.3,53.6,18.3,53.7z"/>
</g>
<path class="st0" d="M18.2,53.7c0.3,0.6,0.5,1.2,0.8,1.8c1,2.1,2.2,4.1,3.5,5.7"/>
<g>
	<path class="st0" d="M78.9,3L42.5,3c-1.2,0-1.5,0.3-1.4,1.5v47.9c0,0,0,0.1-0.1,0.1c0,0-0.1,0-0.1-0.1V4.5
		c-0.1-1.2,0.3-1.6,1.5-1.6l36.5,0C79,2.8,79,2.9,78.9,3C79,3,79,3,78.9,3z"/>
</g>
<path class="st0" d="M78.9,2.9l-5.2,0l-31.3,0c-1.2,0-1.5,0.4-1.5,1.5v47.9"/>
<g>
	<path class="st0" d="M86.9,16v-5.6c0-0.8-0.4-1.2-1.2-1.2H48.5c-0.9,0-1.2,0.4-1.2,1.3l0,34.4c0,0,0,0.1-0.1,0.1c0,0-0.1,0-0.1-0.1
		l0-34.4c0-0.9,0.4-1.4,1.4-1.4h37.2c0.8,0,1.3,0.5,1.3,1.4V16C87,16,87,16,86.9,16C86.9,16,86.9,16,86.9,16z"/>
</g>
<path class="st0" d="M87,16v-5.6c0-0.8-0.5-1.3-1.3-1.3H48.5c-1,0-1.3,0.5-1.3,1.4l0,34.4"/>
<g>
	<path class="st0" d="M85.6,15.6v-4.1c0-0.7-0.4-1-1.1-1H49.6c-0.6,0-0.9,0.2-0.9,0.9l0,29.8c0,0,0,0.1-0.1,0.1c0,0-0.1,0-0.1-0.1
		l0-29.8c0-0.7,0.3-1,1-1h34.9c0.8,0,1.3,0.3,1.3,1.1v4.1C85.7,15.7,85.7,15.7,85.6,15.6C85.6,15.7,85.6,15.7,85.6,15.6z"/>
</g>
<path class="st0" d="M85.7,15.6v-4.1c0-0.7-0.4-1-1.2-1H49.6c-0.7,0-1,0.3-1,1l0,29.8"/>
<g>
	<path class="st0" d="M42.4,2.9l6.2,6.2c0,0,0,0.1,0,0.1c0,0-0.1,0-0.1,0L42.3,3c0,0,0-0.1,0-0.1C42.4,2.8,42.4,2.8,42.4,2.9z"/>
</g>
<line class="st0" x1="42.4" y1="2.9" x2="48.6" y2="9.1"/>
<g>
	<path class="st0" d="M75.8,29.1c0.2,0.9,0.3,2,0.3,2.9c-0.1,1.8,0.8,4.5,1.7,6c0.6,1,1.2,2,2.5,1.7c1.9-0.5,4.7-1.6,4.9-3.9
		c0,0,0-0.1,0.1-0.1c0,0,0.1,0,0.1,0.1c-0.2,2.4-3.1,3.5-5,4c-1.4,0.3-2.1-0.7-2.7-1.7c-0.9-1.5-1.8-4.3-1.7-6.1
		c0-0.9,0-2.1-0.3-2.9C75.7,29.1,75.7,29.1,75.8,29.1C75.8,29,75.8,29.1,75.8,29.1z"/>
</g>
<path class="st0" d="M75.8,29.1c0.2,0.7,0.3,1.9,0.3,2.9c0,0.8,0.3,3.8,1.7,6.1c0.6,0.9,1.2,2,2.6,1.7c2.1-0.6,4.8-1.7,5-4"/>
<g>
	<path class="st0" d="M81.7,30.3c-0.8-0.6-2.2-0.9-2.9,0c0,0-0.1,0-0.1,0c0,0,0-0.1,0-0.1c0.7-0.9,2.2-0.6,3.1,0c0,0,0,0.1,0,0.1
		C81.8,30.3,81.7,30.4,81.7,30.3z"/>
</g>
<path class="st0" d="M81.7,30.3c-0.9-0.7-2.3-0.8-3,0"/>
<g>
	<path class="st0" d="M77.4,30.1c-0.2-0.1-1-0.4-1.2-0.2c0,0-0.1,0-0.1,0c0,0,0-0.1,0-0.1c0.3-0.4,1.1,0,1.4,0.1
		C77.4,29.9,77.5,30,77.4,30.1C77.4,30,77.4,30.1,77.4,30.1z"/>
</g>
<path class="st0" d="M77.4,30c-0.6-0.2-1.1-0.4-1.3-0.1"/>
<g>
	<path class="st0" d="M81.3,31.9c-0.6-0.3-0.8-0.6-1.5-0.5c-0.3,0-0.6,0-0.8-0.1c0,0,0-0.1,0-0.1c0,0,0.1,0,0.1,0
		c0.2,0.1,0.5,0.1,0.7,0.1c0.8-0.1,1,0.2,1.6,0.6C81.4,31.8,81.4,31.8,81.3,31.9C81.3,31.9,81.3,31.9,81.3,31.9z"/>
</g>
<path class="st0" d="M81.3,31.8c-0.5-0.3-0.8-0.6-1.5-0.5c-0.2,0-0.5,0-0.7-0.1"/>
<ellipse class="st0" cx="80.1" cy="31.8" rx="0.1" ry="0.4"/>
<g>
	<path class="st0" d="M77.4,31.3c-0.4,0-0.8-0.1-1.2-0.3c0,0,0-0.1,0-0.1c0,0,0.1,0,0.1,0c0.3,0.2,0.7,0.3,1.1,0.3
		C77.4,31.1,77.5,31.2,77.4,31.3C77.5,31.2,77.4,31.3,77.4,31.3z"/>
</g>
<path class="st0" d="M77.4,31.2c-0.4,0-0.8-0.1-1.1-0.3"/>
<ellipse class="st0" cx="76.8" cy="31.5" rx="0.1" ry="0.4"/>
<g>
	<path class="st0" d="M80.1,36.2c-0.8,0.4-1.6,0.6-2.4,0.3c0,0-0.1-0.1,0-0.1c0,0,0.1-0.1,0.1,0c0.8,0.3,1.6,0.1,2.3-0.3
		C80.1,36.1,80.2,36.1,80.1,36.2C80.2,36.2,80.2,36.2,80.1,36.2z"/>
</g>
<path class="st0" d="M80.1,36.2c-0.9,0.4-1.7,0.5-2.4,0.3"/>
<g>
	<path class="st0" d="M80,37.2c-0.3,0.2-0.6,0.4-0.9,0.4c0,0-0.1,0-0.1-0.1c0,0,0-0.1,0.1-0.1c0.3,0,0.6-0.1,0.8-0.3
		c0,0,0.1,0,0.1,0C80,37.1,80,37.1,80,37.2z"/>
</g>
<path class="st0" d="M79.9,37.1c-0.2,0.2-0.5,0.3-0.9,0.3"/>
<g>
	<path class="st0" d="M80.4,35.6c0,0.5,0.1,0.9,0.4,1.2c0,0,0,0.1,0,0.1c0,0-0.1,0-0.1,0c-0.4-0.4-0.5-0.8-0.4-1.3
		C80.3,35.5,80.3,35.5,80.4,35.6C80.4,35.5,80.4,35.5,80.4,35.6z"/>
</g>
<path class="st0" d="M80.3,35.6c0,0.6,0.1,1,0.4,1.3"/>
<g>
	<path class="st0" d="M87.4,36.4c0.2,1.1,1.4,3.4,2.1,4.3c0,0,0,0.1,0,0.1c0,0-0.1,0-0.1,0c-0.7-0.9-1.9-3.2-2.1-4.4
		C87.3,36.4,87.3,36.3,87.4,36.4C87.4,36.3,87.4,36.4,87.4,36.4z"/>
</g>
<path class="st0" d="M87.4,36.4c0.1,0.7,1,3,2.1,4.4"/>
<g>
	<path class="st0" d="M81.5,39.4c0.3,0.2,0.8,0.8,0.7,1.3c0,0,0,0.1-0.1,0.1c0,0-0.1,0-0.1-0.1c0.1-0.3-0.4-0.9-0.7-1.1
		C81.4,39.5,81.4,39.5,81.5,39.4C81.4,39.4,81.5,39.4,81.5,39.4z"/>
</g>
<path class="st0" d="M81.5,39.5c0.2,0.1,0.8,0.7,0.7,1.2"/>
<g>
	<path class="st0" d="M80.4,41.1c-1.2,0.4-2.2,1-3,1.9c-3.5,3.9-2.7,11.9-4.8,16.8c0,0-0.1,0.1-0.1,0c0,0-0.1-0.1,0-0.1
		c1-2.2,1.3-5,1.6-7.4c0.6-4.3,1.3-9.9,6.2-11.4C80.4,40.9,80.5,41,80.4,41.1C80.5,41,80.5,41.1,80.4,41.1z"/>
</g>
<path class="st0" d="M80.4,41c-7.1,2.2-5.2,12.7-7.8,18.7"/>
<g>
	<path class="st0" d="M73.3,60.3c-0.8-0.7-2.4-0.9-3.4-1c-2-0.2-4.1-0.3-6.1-0.6c0,0-0.1,0-0.1-0.1c0,0,0-0.1,0.1-0.1
		c2,0.3,4.1,0.4,6.1,0.6c1,0.1,2.7,0.3,3.5,1c0,0,0,0.1,0,0.1C73.4,60.3,73.4,60.3,73.3,60.3z"/>
</g>
<path class="st0" d="M73.4,60.2c-1.3-1.1-4.7-0.9-9.6-1.6"/>
<g>
	<path class="st0" d="M83.9,43.6c-0.4-0.1-0.7-0.2-1.1-0.3c0,0,0-0.1,0-0.1c0,0,0.1,0,0.1,0c0.3,0.2,0.7,0.3,1,0.3
		C84,43.5,84,43.5,83.9,43.6C84,43.6,83.9,43.6,83.9,43.6z"/>
</g>
<path class="st0" d="M83.9,43.6c-0.4-0.1-0.7-0.2-1.1-0.3"/>
<g>
	<path class="st0" d="M84,44.4c-0.6-0.1-1.2-0.2-1.7-0.6c0,0,0-0.1,0-0.1c0,0,0.1,0,0.1,0c0.5,0.3,1,0.5,1.6,0.6
		C84.1,44.3,84.1,44.3,84,44.4C84.1,44.4,84.1,44.4,84,44.4z"/>
</g>
<path class="st0" d="M84,44.4c-0.6-0.1-1.2-0.2-1.7-0.6"/>
<g>
	<path class="st0" d="M76.4,62.6c-0.1-0.9-0.4-2.7-0.9-3.5c0-0.1-0.1-0.1-0.1-0.2c-0.6-1.1-0.9-2.3-0.7-3.5c0.2-1.7,1.4-3.7,2.1-5.3
		c1.2-2.6,1.7-5.1,1.5-8c0,0,0-0.1,0.1-0.1c0,0,0.1,0,0.1,0.1c0.1,2.9-0.4,5.4-1.6,8c-0.7,1.6-1.9,3.5-2.1,5.2
		c-0.2,1.2,0.1,2.4,0.7,3.5c0,0.1,0.1,0.1,0.1,0.2c0.5,0.8,0.8,2.6,0.9,3.6C76.5,62.6,76.5,62.7,76.4,62.6
		C76.4,62.7,76.4,62.6,76.4,62.6z"/>
</g>
<path class="st0" d="M76.5,62.6c-0.2-1.3-0.5-2.9-0.9-3.5c0,0-0.1-0.1-0.1-0.2c-2.9-5.4,3.3-7.5,2.9-16.8"/>
<g>
	<path class="st0" d="M91,42c1.5,1.3,2.9,3,3.6,4.8c1.3,3.5,0.1,8.8-0.7,12.3c-0.7,3.3-2.2,8.6-1.7,11.9c0,0,0,0.1-0.1,0.1
		c0,0-0.1,0-0.1-0.1c-0.5-3.3,1-8.6,1.7-11.9c0.8-3.5,2-8.8,0.7-12.3c-0.7-1.9-2.1-3.4-3.5-4.8c0,0,0-0.1,0-0.1
		C90.9,41.9,90.9,41.9,91,42z"/>
</g>
<path class="st0" d="M90.9,42c1.5,1.3,2.9,2.9,3.6,4.8C96.8,53.1,91.1,65,92,71"/>
<g>
	<path class="st0" d="M76.7,71.3c-1.4,1.6-1.8,5.2-2.1,7.3c-0.4,3.7-0.6,7.6-0.8,11.3c-0.2,3.3-0.5,6.7-1.2,9.9c0,0,0,0.1-0.1,0.1
		c0,0-0.1,0-0.1-0.1c0.7-3.2,1-6.6,1.2-9.9c0.3-3.8,0.4-7.6,0.8-11.3c0.2-2.1,0.7-5.7,2.1-7.4c0,0,0.1,0,0.1,0
		C76.7,71.2,76.7,71.2,76.7,71.3z"/>
</g>
<path class="st0" d="M76.7,71.2c-3.2,3.8-2.1,18.6-4.2,28.5"/>
<g>
	<path class="st0" d="M92.1,71.1c5,1.1,6,15.9,6.3,19.8c0.3,4.2,0.5,8.4,0.8,12.6c0,0,0,0.1-0.1,0.1c0,0-0.1,0-0.1-0.1
		c-0.3-4.2-0.5-8.4-0.8-12.6C97.9,87,96.9,72.3,92,71.2C92,71.2,92,71.2,92.1,71.1C92,71.1,92,71.1,92.1,71.1z"/>
</g>
<path class="st0" d="M92,71.2c5.9,1.3,6.3,21.2,7.1,32.4"/>
<g>
	<path class="st0" d="M85,32.1c0.1-0.1,0.1-0.2,0.3-0.4c0.4-0.3,1-0.5,1.3-0.1c0.6,0.7-0.2,2.9-1,2.9c0,0-0.1,0-0.1-0.1
		c0,0,0-0.1,0.1-0.1c0.6,0,1.5-2,0.9-2.6c-0.3-0.4-0.8-0.2-1.1,0.1c-0.4,0.4-0.2,0.8-0.8,0c-1-1.3-4-5.5-4.2-6.9c0,0,0-0.1,0.1-0.1
		s0.1,0,0.1,0.1c0.2,1.4,3.3,5.6,4.2,6.8C84.8,31.8,84.9,32,85,32.1z"/>
</g>
<path class="st0" d="M80.5,25c0.2,1.3,3.1,5.3,4.2,6.8c0.5,0.7,0.2,0.4,0.6,0c0.4-0.3,0.9-0.5,1.2-0.1c0.6,0.7-0.3,2.7-1,2.8"/>
<g>
	<path class="st0" d="M74.7,34.9c0.1-3.6,1-9.9,5.8-10c0,0,0.1,0,0.1,0.1c0,0,0,0.1-0.1,0.1c-4.7,0-5.5,6.3-5.6,9.8
		C74.8,34.9,74.8,34.9,74.7,34.9C74.7,34.9,74.7,34.9,74.7,34.9z"/>
</g>
<path class="st0" d="M74.8,34.9c0.1-6.3,2.2-9.9,5.7-9.9"/>
<g>
	<path class="st0" d="M82.7,20.3c-0.4-0.2-0.8-0.3-1.2-0.3c-3.3,0-5.7,4.9-6.3,7.6c-0.3,1.3-0.4,2.6-0.3,3.9c0.4,3.8,2,7.3,2.7,10.9
		c0,0,0,0.1-0.1,0.1c0,0-0.1,0-0.1-0.1c-0.7-3.7-2.3-7.2-2.7-11c-0.1-1.3,0-2.7,0.3-4c0.7-2.8,3-7.7,6.4-7.7c0.4,0,0.9,0.1,1.3,0.3
		C82.8,20.2,82.8,20.3,82.7,20.3C82.8,20.3,82.8,20.4,82.7,20.3z"/>
</g>
<path class="st0" d="M82.8,20.3c-3.9-1.7-8.5,5.5-7.9,11.3c0.4,3.7,2.1,7.7,2.7,11"/>
<g>
	<path class="st0" d="M93.5,41.2c-0.4-2.3-0.3-5-0.3-7.3c0.1-6.9-1.8-14.7-10.4-13.5L80.5,25c0,0-0.1,0.1-0.1,0c0,0-0.1-0.1,0-0.1
		l2.3-4.7c0,0,0,0,0.1,0c8.7-1.2,10.7,6.6,10.6,13.7c0,2.4-0.1,5,0.3,7.4c0,0,0,0.1,0,0.1l-2.1,1.2c0,0-0.1,0-0.1,0c0,0,0-0.1,0-0.1
		L93.5,41.2z"/>
</g>
<path class="st0" d="M80.5,25l2.3-4.7c8-1.1,10.6,5.5,10.5,13.6c0,3.3,0,5.4,0.3,7.4l-2.1,1.2"/>
<g>
	<path class="st0" d="M77.8,32.9c-0.1,0.5-0.3,1.4-0.5,1.7c-0.1,0.2,0,0.5,0.3,0.5c0.2,0,0.4-0.2,0.7-0.2c0.3,0,0.3,0.3,0.6-0.1
		c0,0,0.1,0,0.1,0c0,0,0,0.1,0,0.1c-0.3,0.4-0.4,0.2-0.7,0.1c-0.2,0-0.4,0.2-0.6,0.2c-0.4,0-0.6-0.4-0.4-0.8
		c0.2-0.3,0.4-1.2,0.5-1.7C77.7,32.8,77.7,32.8,77.8,32.9C77.8,32.8,77.8,32.8,77.8,32.9z"/>
</g>
<path class="st0" d="M77.7,32.9c-0.1,0.6-0.3,1.4-0.5,1.7c-0.1,0.2,0,0.6,0.4,0.6c0.3,0,0.4-0.2,0.6-0.2c0.2,0,0.4,0.3,0.7-0.1"/>
<g>
	<circle class="st0" cx="86.4" cy="35.3" r="0.4"/>
</g>
<circle class="st0" cx="86.4" cy="35.3" r="0.3"/>
<g>
	<path class="st0" d="M76.7,71.2c3.9,1.7,11.4,1.5,15.4-0.1c0,0,0.1,0,0.1,0c0,0,0,0.1,0,0.1c-4,1.6-11.5,1.8-15.5,0.1
		C76.6,71.3,76.6,71.2,76.7,71.2C76.6,71.2,76.7,71.1,76.7,71.2z"/>
</g>
<path class="st0" d="M76.7,71.2c4.6,2,12.3,1.1,15.4-0.1"/>
<g>
	<path class="st0" d="M89.5,40.8c0.5-0.4,1.1,0.9,1.4,1.2c0,0,0,0.1,0,0.1c-1.3,1.7-3.6,3-5.7,3.8c-1,0.4-1,0.6-1.1-0.5L84,43.6
		c-0.1-0.5,0.1-0.3,0.4-0.3C86.1,43.2,88.3,42,89.5,40.8z"/>
</g>
<path class="st0" d="M90.9,42c-0.4-0.4-0.9-1.5-1.3-1.2c-1.4,1.3-3.6,2.4-5.2,2.4c-0.4,0-0.4-0.1-0.4,0.2l0.2,1.7c0.1,1,0,0.9,1,0.5
	C87.5,44.9,89.7,43.6,90.9,42z"/>
<g>
	<path class="st0" d="M80.5,40.9c0.5-0.4,1.2-0.5,1.7-0.3c0,0,0.1,0,0,0.1c-0.1,0.6,0,1.5,0.4,2c0.3,0.3,0.4,0.2,0,0.6
		c-0.3,0.4-0.6,0.8-0.9,1.2c-0.4,0.8-0.4,1.3-1,0C80.4,43.4,80.5,42.2,80.5,40.9C80.4,41,80.4,41,80.5,40.9z"/>
</g>
<path class="st0" d="M80.5,41c0.5-0.3,1.1-0.5,1.7-0.3c-0.1,0.6-0.1,1.5,0.4,2.1c0.3,0.3,0.4,0.1,0,0.5c-0.4,0.4-0.6,0.8-0.9,1.2
	c-0.4,0.7-0.3,1.3-0.9,0C80.5,43.4,80.5,42.1,80.5,41z"/>
<g>
	<path class="st0" d="M83.2,44.4c-0.2,1.6-0.6,3.2-1.1,4.6c-0.3,0.9-0.8,1.7-1.2,2.6c-0.4,0.8-0.7,1.5-0.9,2.3c-1,3.4-0.2,5,0.3,8.2
		c0,0,0,0.1-0.1,0.1c0,0-0.1,0-0.1-0.1c-0.5-3.2-1.3-4.8-0.3-8.2c0.2-0.8,0.6-1.5,1-2.3c0.5-0.9,0.9-1.6,1.2-2.6
		c0.6-1.5,0.9-3.1,1.1-4.6C83.1,44.3,83.1,44.3,83.2,44.4C83.2,44.3,83.2,44.3,83.2,44.4z"/>
</g>
<path class="st0" d="M83.1,44.4c-0.9,6.2-2.4,6.4-3.3,9.5c-1,3.6-0.1,5.6,0.3,8.2"/>
<g>
	<path class="st0" d="M76.7,69.7c3.9,1.7,11.1,1.4,15.2,0c0,0,0.1,0,0.1,0c0,0,0,0.1,0,0.1c-4,1.5-11.3,1.7-15.3,0
		C76.6,69.8,76.6,69.8,76.7,69.7C76.6,69.7,76.7,69.7,76.7,69.7z"/>
</g>
<path class="st0" d="M76.7,69.8c4.5,2,12,1.2,15.2,0"/>
<g>
	<path class="st0" d="M76.7,67.6l0,3.5c0,0,0,0.1-0.1,0.1c0,0-0.1,0-0.1-0.1l0-3.5C76.6,67.6,76.6,67.5,76.7,67.6
		C76.7,67.5,76.7,67.6,76.7,67.6z"/>
</g>
<line class="st0" x1="76.7" y1="67.6" x2="76.7" y2="71.1"/>
<g>
	<path class="st0" d="M63.1,61.9l-1.9,2c0,0-0.1,0-0.1,0c0,0,0-0.1,0-0.1l1.9-2c0,0,0.1,0,0.1,0C63.1,61.8,63.1,61.9,63.1,61.9z"/>
</g>
<line class="st0" x1="63" y1="61.8" x2="61.1" y2="63.8"/>
<line class="st0" x1="52.8" y1="60.3" x2="55.7" y2="58.7"/>
<line class="st0" x1="53.5" y1="61.4" x2="56.7" y2="59.5"/>
<g>
	<path class="st0" d="M61.1,58.8l-0.7-0.7c-0.3-0.3-0.6-0.6-0.4-1c0.1-0.2,0.4-0.5,0.6-0.3c0.8,1,1.7,1.3,2.9,1.7
		c1.4,0.4,2.5,1,3.8,1.7c1.2,0.7,2.2,1.2,3.6,1.5c2.1,0.5,4.1,0.9,6.3,1.1c1.3,0.1,2.6,0.1,3.8,0.4c0.5,0.1,1.1,0.2,1.6,0.4
		c0,0,0.1,0.1,0,0.1c0,0-0.1,0.1-0.1,0c-0.5-0.2-1-0.3-1.6-0.4c-1.2-0.2-2.6-0.2-3.8-0.4c-2.1-0.2-4.2-0.6-6.3-1.1
		c-1.4-0.3-2.4-0.8-3.6-1.5c-1.3-0.7-2.3-1.3-3.7-1.7c-1.2-0.4-2.1-0.7-3-1.7c-0.1-0.1-0.3,0.2-0.3,0.3c-0.1,0.3,0.2,0.7,0.4,0.9
		l0.7,0.7c0,0,0,0.1,0,0.1C61.2,58.9,61.1,58.9,61.1,58.8z"/>
</g>
<path class="st0" d="M61.2,58.8l-0.7-0.7c-0.4-0.4-0.5-0.7-0.4-1c0.1-0.2,0.3-0.4,0.5-0.3c0.9,1.1,1.8,1.3,2.9,1.7
	c3.4,1,4,2.4,7.4,3.2c6.7,1.6,8.8,0.8,11.7,1.8"/>
<g>
	<path class="st0" d="M60.4,58.1c-0.8-0.2-1.5-0.3-2.3-0.5c0,0-0.1,0-0.1-0.1c0,0,0-0.1,0.1-0.1c0.7,0.2,1.5,0.3,2.3,0.5
		C60.5,58,60.5,58.1,60.4,58.1C60.5,58.1,60.5,58.2,60.4,58.1z"/>
</g>
<path class="st0" d="M60.4,58.1c-0.7-0.1-1.6-0.3-2.3-0.5"/>
<g>
	<path class="st1" d="M58.1,68.2v-6.4c0-0.3,0.3-0.8,0.5-1c0,0,0.1,0,0.1,0c0,0,0,0.1,0,0.1c-0.2,0.2-0.5,0.6-0.5,0.9v6.4
		C58.2,68.3,58.2,68.3,58.1,68.2C58.1,68.3,58.1,68.3,58.1,68.2z"/>
</g>
<path class="st1" d="M58.2,68.2v-6.4c0-0.3,0.3-0.8,0.5-0.9"/>
<g>
	<path class="st1" d="M59.2,68.3V62c0-0.4,0.5-0.6,0.9-0.7c0,0,0.1,0,0.1,0.1c0,0,0,0.1-0.1,0.1c-0.3,0-0.7,0.2-0.7,0.5v6.2
		C59.3,68.3,59.3,68.3,59.2,68.3C59.2,68.3,59.2,68.3,59.2,68.3z"/>
</g>
<path class="st1" d="M59.3,68.3V62c0-0.3,0.4-0.5,0.8-0.6"/>
<g>
	<path class="st1" d="M63.2,68.3V63c0,0,0-0.1,0.1-0.1s0.1,0,0.1,0.1v5.3C63.4,68.3,63.3,68.4,63.2,68.3
		C63.3,68.4,63.2,68.3,63.2,68.3z"/>
</g>
<line class="st1" x1="63.3" y1="68.3" x2="63.3" y2="63"/>
<g>
	<path class="st1" d="M64.3,68.4v-5.5c0,0,0-0.1,0.1-0.1s0.1,0,0.1,0.1v5.5C64.5,68.4,64.5,68.4,64.3,68.4
		C64.4,68.4,64.3,68.4,64.3,68.4z"/>
</g>
<line class="st1" x1="64.4" y1="68.4" x2="64.4" y2="62.9"/>
<g>
	<path class="st0" d="M35.6,62c3.3-0.1,7,1.1,10.1,2.1c0,0,0.1,0.1,0,0.1c0,0-0.1,0.1-0.1,0c-3.1-1-6.7-2.2-10-2.1
		C35.6,62.1,35.6,62.1,35.6,62C35.6,62,35.6,62,35.6,62z"/>
</g>
<path class="st0" d="M35.7,62c2.6-0.1,5.3,0.6,10,2.1"/>
<g>
	<path class="st1" d="M58.2,62.7h-9.5c-1.9,0-3.5,1.5-3.5,3.5c0,1.9,1.6,3.5,3.5,3.5H66c2-0.1,3.5-1.5,3.5-3.5
		c0-0.5-0.1-0.9-0.3-1.4c0,0,0-0.1,0-0.1c0,0,0.1,0,0.1,0c0.1,0.5,0.3,0.9,0.3,1.4c0,2-1.6,3.6-3.6,3.7H48.6c-2,0-3.6-1.7-3.6-3.6
		c0-2,1.6-3.6,3.6-3.6h9.5C58.2,62.6,58.2,62.6,58.2,62.7C58.2,62.7,58.2,62.7,58.2,62.7z"/>
</g>
<path class="st1" d="M58.2,62.7h-9.5c-2,0-3.5,1.6-3.5,3.5c0,1.8,1.5,3.5,3.5,3.5H66c2-0.1,3.5-1.6,3.5-3.6c0-0.5-0.1-1-0.3-1.4"/>
<g>
	<path class="st1" d="M58.2,63.5h-9.4c-1.4,0-2.4,1.1-2.4,2.4c0,1.3,1.1,2.4,2.4,2.4h17.2c1.3,0,2.4-1.1,2.4-2.4
		c0-1-0.7-1.8-1.5-2.3c0,0,0-0.1,0-0.1c0,0,0.1,0,0.1,0c0.9,0.5,1.6,1.4,1.6,2.4c0,1.4-1.1,2.5-2.5,2.5H48.7c-1.4,0-2.6-1.2-2.5-2.5
		c0-1.4,1.1-2.5,2.5-2.5h9.4C58.2,63.4,58.2,63.4,58.2,63.5C58.2,63.5,58.2,63.5,58.2,63.5z"/>
</g>
<path class="st1" d="M58.2,63.4h-9.4c-1.5,0-2.5,1.2-2.5,2.5c0,1.1,0.9,2.5,2.5,2.5h17.2c1.5,0,2.4-1.3,2.5-2.5c0-1-0.7-1.9-1.5-2.4
	"/>
<g>
	<path class="st1" d="M59.3,63.4h1.1c0,0,0.1,0,0.1,0.1s0,0.1-0.1,0.1h-1.1C59.2,63.5,59.2,63.5,59.3,63.4
		C59.2,63.4,59.2,63.4,59.3,63.4z"/>
</g>
<line class="st1" x1="59.3" y1="63.4" x2="60.3" y2="63.4"/>
<line class="st1" x1="62.7" y1="63.4" x2="63.3" y2="63.4"/>
<g>
	<path class="st0" d="M17.4,36.3c-0.1,4.7,3.2,11.4,5,15.8c0.5,1.3,0.7,1.5,0.6,2.9l-0.4,14.3c0,0,0,0.1-0.1,0.1c0,0-0.1,0-0.1-0.1
		L22.9,55c0-1.4-0.1-1.6-0.6-2.9c-1.8-4.4-5.1-11.1-5-15.9C17.3,36.2,17.3,36.2,17.4,36.3C17.4,36.2,17.4,36.2,17.4,36.3z"/>
</g>
<path class="st0" d="M17.3,36.3c-0.1,4.5,2.8,10.5,5,15.8c0.6,1.4,0.7,1.4,0.6,2.9l-0.4,14.3"/>
<g>
	<path class="st0" d="M11.4,64.1c0.1-1.3,0-2.7-0.3-4c0,0,0-0.1,0.1-0.1c0,0,0.1,0,0.1,0.1c0.3,1.3,0.4,2.7,0.3,4
		C11.6,64.2,11.5,64.2,11.4,64.1C11.5,64.2,11.4,64.2,11.4,64.1z"/>
</g>
<path class="st0" d="M11.5,64.1c0.1-1.2,0-2.5-0.3-4"/>
<line class="st0" x1="22.5" y1="68.8" x2="24.2" y2="68.6"/>
<g>
	<path class="st0" d="M27.3,69.9l-1.5-13.8c-0.1-1.3-0.2-2.4-0.2-3.7c0.1-2.5,0.2-10.2-1-12.2c0,0,0-0.1,0-0.1c0,0,0.1,0,0.1,0
		c1.2,1.9,1.1,9.7,1,12.2c-0.1,1.3,0,2.4,0.2,3.7l1.5,13.8C27.4,70,27.4,70,27.3,69.9C27.3,70,27.3,70,27.3,69.9z"/>
</g>
<path class="st0" d="M27.4,69.9l-1.5-13.8c-0.2-1.4-0.2-2.2-0.2-3.7c0.2-4.2-0.1-10.6-1-12.2"/>
<g>
	<path class="st2" d="M46.3,68.8V90c0,4,3.3,7.1,7.3,7.1H61c3.9,0,7.3-3.1,7.3-7.1V68.9c0,0,0-0.1,0.1-0.1c0,0,0.1,0,0.1,0.1V90
		c0,4-3.4,7.3-7.4,7.3h-7.5c-4,0-7.4-3.2-7.4-7.3V68.8C46.1,68.7,46.2,68.7,46.3,68.8C46.2,68.7,46.3,68.7,46.3,68.8z"/>
</g>
<path class="st1" d="M46.2,68.8V90c0,4.2,3.6,7.2,7.3,7.2H61c3.8,0,7.3-3.1,7.3-7.2V68.9"/>
<g>
	<path class="st1" d="M49.4,62.6V57c0-1.4,2.1-1.9,3.2-2c1.2,0,3.2,0.6,3.2,2.1v1c0,0,0,0.1-0.1,0.1c0,0-0.1,0-0.1-0.1v-1
		c0-1.4-1.9-1.9-3.1-1.9c-1,0-3.1,0.5-3.1,1.8v5.6C49.5,62.6,49.5,62.6,49.4,62.6C49.4,62.6,49.4,62.6,49.4,62.6z"/>
</g>
<path class="st1" d="M49.4,62.6V57c0-1.2,1.7-1.9,3.1-1.9c1.8,0,3.1,0.9,3.1,2v1"/>
<g>
	<path class="st1" d="M50.5,62.5v-5.4c0-0.7,1.6-0.8,2.1-0.8c0.4,0,2.1,0.1,2.1,0.8v0.9c0,0,0,0.1-0.1,0.1c0,0-0.1,0-0.1-0.1v-0.9
		c0-0.5-1.6-0.7-1.9-0.7c-0.4,0-1.9,0.1-1.9,0.7v5.4C50.6,62.5,50.6,62.6,50.5,62.5C50.5,62.6,50.5,62.5,50.5,62.5z"/>
</g>
<path class="st1" d="M50.5,62.5v-5.4c0-0.5,1.2-0.7,2-0.7c1.1,0,2,0.3,2,0.7v0.9"/>
<line class="st1" x1="55.7" y1="61.3" x2="55.7" y2="62.9"/>
<path class="st3" d="M64.4,65.4c0,0.1,0.2,0.1,0.3,0.1c2.1,0.7,3.1,1.4,2.2,2.7c0.8-0.5,1.5-1,1.5-2c0-1.2-1-2.5-2.5-2.5h-1.4
	L64.4,65.4z"/>
<path class="st3" d="M48.7,63.6c3,0,6.3,0.2,9.2,0.5c0.1,0,0.2,0.1,0.2,0l0-0.5L48.7,63.6z"/>
<path class="st4" d="M99.1,103.6C99.2,103.6,99.2,103.6,99.1,103.6C98.1,83,96.4,71.8,92,71.2l-5,1.1
	C93.1,80.2,87.1,99.8,99.1,103.6z"/>
<path class="st5" d="M92.6,46.8C92,45.3,91.2,44,90.1,43l0.9-1c1.5,1.3,2.9,2.9,3.6,4.8c2.3,6.3-3.5,18.4-2.4,24.4l-4.9,1.1
	l2.8-10.8c2.5-3.7,4.5-9.3,4-13C93.6,47.8,93.2,47.1,92.6,46.8z"/>
<path class="st4" d="M12.2,55.8l-1,4.3c0.4,1.6,0.5,2.9,0.3,4.2c0,0-0.1,0.1,0,0.1l1.7,0.7c0.1,0,0-0.2,0-0.3
	C12.7,60.6,12.3,56.7,12.2,55.8z"/>
<path class="st4" d="M10.3,71.9c-0.1,0,0,0.2,0,0.3c-0.1,0.9-0.1,2,0,3.1c1.2,0.7,4.9,1.6,6.4,2c0,0,0.1,0.1,0.1,0
	c-0.6-0.5-3-1.7-2.8-3.8c0-0.1,0.1-0.3,0-0.4L10.3,71.9z"/>
<path class="st4" d="M37.5,68.8c-3.6-3.6-4.7-13.5-4.9-25.9l-0.4,23.7C33.9,68,35.7,68.6,37.5,68.8z"/>
<path class="st6" d="M53.8,97.2c10.4-1.3,10.7-4.5,10.5-27.3c4.7-0.1,2.7-0.1,4-1V90c0,4.1-3.5,7.2-7.3,7.2L53.8,97.2
	C53.4,97.2,53.5,97.2,53.8,97.2z"/>
<path class="st0" d="M53.5,61.4c0,0.4,0.5,1,1,0.8c0.9-0.4,1.9-1.3,2.4-1.6c0.5-0.3,0.2-0.9-0.3-0.9c0.3-0.5-0.2-1-0.8-0.9
	c0.3-0.4-0.1-1-0.9-0.7c-0.4,0.1-1.6,0.7-2.2,1.1c-0.7,0.4-0.3,1.1,0.3,1.2C52.8,60.7,53,61.1,53.5,61.4z"/>
<g>
	<path class="st0" d="M58.9,57.7c-0.7-2.4-2.7-1.7-4-3.4c-0.1-0.1-0.2,0.1-0.2,0.2c-0.1,0.2,0.1,0.5,0.3,0.7l0.9,1
		c0.4,0.4,0.3,1.3,0.7,1.8c0,0,0,0.1,0,0.1c0,0-0.1,0-0.1,0c-0.4-0.5-0.4-1.4-0.7-1.8l-0.9-1c-0.2-0.2-0.4-0.5-0.3-0.8
		c0.1-0.2,0.3-0.4,0.5-0.2c1.3,1.7,3.2,1,4,3.5C59.1,57.7,59.1,57.8,58.9,57.7C59,57.8,58.9,57.8,58.9,57.7z"/>
</g>
<path class="st0" d="M59,57.7c-0.8-2.5-2.7-1.7-4-3.5c-0.1-0.1-0.3,0-0.4,0.2c-0.1,0.2,0,0.4,0.3,0.8l0.9,1c0.3,0.4,0.3,1.3,0.7,1.8
	"/>
<g>
	<path class="st0" d="M61,63.9c-0.5,0.1-0.9-0.5-0.7-1c-0.6,0.1-0.8-0.6-0.5-1.2c0.2-0.5,1.4-1.8,1.8-2.3c0,0,0.1,0,0.1,0
		c0,0,0,0.1,0,0.1c-0.4,0.5-1.6,1.7-1.8,2.2c-0.3,0.5-0.1,1.2,0.4,1c0,0,0.1,0,0.1,0c0,0,0,0.1,0,0.1c-0.2,0.4,0.1,1.1,0.6,0.9
		c0,0,0.1,0,0.1,0c0,0,0,0,0,0.1c-0.1,0.4,0.4,0.8,0.7,0.4c0.6-0.8,1.6-1.7,2.4-2.3c0,0,0.1,0,0.1,0c0,0,0,0.1,0,0.1
		c-0.8,0.6-1.7,1.5-2.4,2.3C61.6,64.8,61,64.4,61,63.9z"/>
</g>
<path class="st0" d="M61.7,59.5c-0.3,0.4-1.6,1.8-1.8,2.3c-0.4,0.7,0,1.3,0.5,1.1c-0.3,0.6,0.1,1.2,0.7,1c-0.1,0.5,0.4,0.9,0.8,0.5
	c0.5-0.6,1.6-1.7,2.4-2.3"/>
<g>
	<path class="st0" d="M62.2,61l-1.7,1.9c0,0-0.1,0-0.1,0c0,0,0-0.1,0-0.1l1.7-1.9c0,0,0.1,0,0.1,0C62.2,60.9,62.2,60.9,62.2,61z"/>
</g>
<line class="st0" x1="62.2" y1="60.9" x2="60.4" y2="62.8"/>
<g>
	<path class="st0" d="M62.4,58.6c-1.4,0-2.4,0.9-3.6,1.4c-0.7,0.2-0.2,1,0.4,0.8l2-0.8c0,0,0.1,0,0.1,0c0,0,0,0.1,0,0.1l-2,0.8
		c-0.7,0.2-1.3-0.8-0.5-1.1c1.3-0.4,2.2-1.4,3.7-1.4C62.5,58.5,62.5,58.5,62.4,58.6C62.5,58.6,62.5,58.6,62.4,58.6z"/>
</g>
<path class="st0" d="M62.4,58.5c-1.4,0-2.5,1-3.7,1.4c-0.7,0.3-0.2,1.1,0.4,1l2-0.8"/>
<path class="st3" d="M59.2,64.3c0,0.1,0.1,0,0.2,0c1.3,0.2,2.6,0.4,3.7,0.7c0,0,0.1,0.1,0.1,0l0.1-1.3h-0.8l-1,0.8l-0.3-0.4l0-0.4
	h-2L59.2,64.3z"/>
<g>
	<path class="st0" d="M68.4,63.5c-1.7,0.4-3.2-0.1-4.7-1c0,0,0-0.1,0-0.1c0,0,0.1,0,0.1,0c1.4,0.9,2.9,1.4,4.6,1
		C68.4,63.3,68.5,63.3,68.4,63.5C68.5,63.4,68.5,63.5,68.4,63.5z"/>
</g>
<path class="st0" d="M68.4,63.4c-1.8,0.5-3.3-0.2-4.6-1"/>
<g>
	<path class="st0" d="M67.5,63.5c1.9,1.4,5.3,2.5,7.6,3.2c2.4,0.8,4.9,1.4,7.4,2.2c1.2,0.3,2.2,0.1,3-0.9c2.5-3.5,5.1-7.3,6.9-11.1
		c1.2-2.5,2.2-5.6,1.5-8.4c-0.2-0.7-0.6-1.4-1.3-1.7c-1.8-0.8-3.9,1.1-4.8,2.5c-2.7,4.2-4.4,9.3-6.3,14c0,0-0.1,0.1-0.1,0
		c0,0-0.1-0.1,0-0.1c1.9-4.6,3.6-9.8,6.3-14c0.9-1.5,3-3.5,4.9-2.6c0.7,0.3,1.2,1,1.3,1.8c0.7,2.8-0.4,5.9-1.6,8.5
		c-1.8,3.9-4.4,7.7-6.9,11.2c-0.9,1-1.9,1.3-3.1,0.9c-2.4-0.8-4.9-1.4-7.4-2.2c-2.3-0.7-5.7-1.8-7.6-3.3c0,0,0-0.1,0-0.1
		C67.4,63.5,67.4,63.5,67.5,63.5z"/>
</g>
<path class="st0" d="M67.4,63.5c3.1,2.3,11.1,4.2,15,5.4c1.2,0.3,2.2,0.1,3.1-0.9c6-8.5,9.6-14.7,8.5-19.6c-0.7-3-4.3-2.5-6.1,0.8
	c-2.5,4-3.7,7.7-6.3,14"/>
<g>
	<path class="st0" d="M27.5,29c0.4-0.3,0.9-0.5,1.3-0.7c0,0,0.1,0,0.1,0c0,0,0,0.1,0,0.1c-0.5,0.1-0.9,0.4-1.3,0.7c0,0-0.1,0-0.1,0
		C27.5,29.1,27.5,29,27.5,29z"/>
</g>
<path class="st0" d="M27.6,29.1c0.4-0.3,0.8-0.5,1.3-0.7"/>
<g>
	<path class="st0" d="M27.6,28.9c0.3-0.2,0.6-0.3,1-0.3c0,0,0.1,0,0.1,0.1c0,0,0,0.1-0.1,0.1c-0.3,0-0.6,0.1-0.9,0.3
		c0,0-0.1,0-0.1,0C27.5,28.9,27.5,28.9,27.6,28.9z"/>
</g>
<path class="st0" d="M27.6,28.9c0.3-0.2,0.6-0.3,0.9-0.3"/>
<ellipse transform="matrix(8.196101e-02 -0.9966 0.9966 8.196101e-02 -3.2361 54.7022)" class="st0" cx="28.1" cy="29.1" rx="0.4" ry="0.1"/>
<g>
	<path class="st1" d="M18,18.3c6.6-1,9.2-1.3,10.7,6c0,0,0,0.1,0,0.1c0,0-0.1,0-0.1,0c-0.8-0.6-2.3-0.2-3.1,0.1
		c-1.5,0.5-3,1.3-4.5,1.9c-2.2,0.9-5.3,2-7.6,0.7c0,0,0,0,0,0c-0.8-3.3,0.5-7.5,4-8.6C17.6,18.3,17.8,18.3,18,18.3z"/>
</g>
<path class="st1" d="M18,18.3c-3.2,0.5-5.7,4.3-4.6,8.6c4.5,2.7,12.6-4.6,15.2-2.7C27.2,17.2,24.9,17.3,18,18.3z"/>
<g>
	<path class="st1" d="M18.3,27.1c0-0.7-0.1-1.5-0.1-2.2c-0.1-1.8-0.7-5.5,0.9-6.7c0,0,0.1,0,0.1,0c0,0,0,0.1,0,0.1
		c-1.6,1.2-1,4.9-0.9,6.6c0.1,0.7,0.1,1.5,0.1,2.2C18.4,27.1,18.4,27.1,18.3,27.1C18.3,27.1,18.3,27.1,18.3,27.1z"/>
</g>
<path class="st1" d="M18.3,27.1c0-3.4-1.1-7.5,0.8-8.9"/>
<g>
	<path class="st1" d="M31.4,26.4l-2.7-2.1c0,0,0-0.1,0-0.1c0,0,0.1,0,0.1,0l3.3,2.5c0,0,0,0.1,0,0.1c0,0-0.1,0-0.1,0
		c-2.5-1.7-6.1,2.9-8.5,2.1c-1.3-0.4-2.5-1.2-3.4-2.1c0,0,0-0.1,0-0.1c0,0,0.1,0,0.1,0c1,1,2.1,1.7,3.4,2.1
		C25.6,29.5,28.9,25.7,31.4,26.4z"/>
</g>
<path class="st1" d="M28.7,24.3l2.8,2.1l0.5,0.4c-2.5-1.7-6.2,2.9-8.6,2.1c-1.2-0.4-2.4-1.1-3.4-2.1"/>
<g>
	<path class="st1" d="M32.1,26.8c0.1,0.1,0.1,0.1,0.1,0.2c0,0.3-0.5,0.4-0.7,0.4c-0.6,0-1.3-0.4-1.7-0.8c0,0,0-0.1,0-0.1
		c0,0,0.1,0,0.1,0c0.4,0.4,1,0.7,1.6,0.8c0.1,0,0.6,0,0.6-0.2c0,0,0-0.1-0.1-0.1c0,0,0-0.1,0-0.1C32.1,26.8,32.1,26.8,32.1,26.8z"/>
</g>
<path class="st1" d="M32.1,26.9c0.4,0.3-0.7,1-2.3-0.3"/>
<path class="st3" d="M18,18.3c-3.2,0.5-5.7,4.3-4.6,8.6c1.4,0.8,3,0.7,4.8,0.3c0.1,0,0.2,0,0.2-0.1c-0.4-3.7-0.8-7.3,0.5-8.9
	C19,18.1,18.3,18.3,18,18.3z"/>
<path class="st4" d="M10.7,103.7c-0.3-6-2-22.6-0.1-28c2.4,0.9,3,1.2,5.8,1.5C13.9,83.8,17.4,103.7,10.7,103.7z"/>
</svg>
